<svg xmlns="http://www.w3.org/2000/svg" width="20" height="20" viewBox="0 0 20 20">
  <path id="iconmonstr-github-1" d="M10,0A10.13,10.13,0,0,0,0,10.253a10.235,10.235,0,0,0,6.839,9.729c.5.095.661-.223.661-.493V17.58c-2.782.62-3.361-1.21-3.361-1.21a2.7,2.7,0,0,0-1.111-1.5c-.907-.637.069-.623.069-.623A2.106,2.106,0,0,1,4.63,15.3a2.1,2.1,0,0,0,2.91.852,2.2,2.2,0,0,1,.635-1.37c-2.221-.261-4.556-1.14-4.556-5.067a4.024,4.024,0,0,1,1.03-2.752,3.774,3.774,0,0,1,.1-2.714S5.587,3.977,7.5,5.3a9.253,9.253,0,0,1,5.007,0c1.909-1.326,2.748-1.051,2.748-1.051a3.771,3.771,0,0,1,.1,2.714A4.014,4.014,0,0,1,16.38,9.718c0,3.938-2.339,4.805-4.566,5.059a2.484,2.484,0,0,1,.686,1.9v2.814c0,.273.16.593.667.492A10.236,10.236,0,0,0,20,10.253,10.129,10.129,0,0,0,10,0Z" fill="#fff"/>
</svg>
