<?xml version="1.0" encoding="UTF-8" standalone="no"?> <svg xmlns="http://www.w3.org/2000/svg" viewBox="0 0 64 64"><g id="Layer_2" data-name="Layer 2"><g id="Layer_1-2" data-name="Layer 1"><path class="cls-1" d="M0,16H16V0H0ZM5.33,5.33h5.34v5.34H5.33Z"/><path class="cls-1" d="M24,16H40V0H24ZM29.33,5.33h5.34v5.34H29.33Z"/><path class="cls-1" d="M48,0V16H64V0ZM58.67,10.67H53.33V5.33h5.34Z"/><path class="cls-1" d="M0,40H16V24H0ZM5.33,29.33h5.34v5.34H5.33Z"/><path class="cls-1" d="M24,40H40V24H24Zm5.33-10.67h5.34v5.34H29.33Z"/><path class="cls-1" d="M48,40H64V24H48Zm5.33-10.67h5.34v5.34H53.33Z"/><path class="cls-1" d="M0,64H16V48H0ZM5.33,53.33h5.34v5.34H5.33Z"/><path class="cls-1" d="M24,64H40V48H24Zm5.33-10.67h5.34v5.34H29.33Z"/><path class="cls-1" d="M48,64H64V48H48Zm5.33-10.67h5.34v5.34H53.33Z"/></g></g></svg>
