<svg id="svg" version="1.1" xmlns="http://www.w3.org/2000/svg" xmlns:xlink="http://www.w3.org/1999/xlink" width="400" height="400" viewBox="0, 0, 400,400"><g id="svgg"><path id="path0" d="M203.218 14.644 C 203.245 22.287,203.317 28.590,203.377 28.650 C 203.437 28.710,225.658 28.738,252.757 28.712 L 302.027 28.665 298.679 26.760 C 270.275 10.602,234.775 0.755,204.898 0.747 L 203.168 0.747 203.218 14.644 M203.288 60.986 C 203.117 61.431,203.157 90.066,203.329 90.336 C 203.447 90.523,219.912 90.561,285.034 90.523 L 366.591 90.476 364.754 87.768 C 358.922 79.172,352.434 71.106,344.964 63.165 L 342.636 60.691 273.019 60.691 C 209.709 60.691,203.391 60.718,203.288 60.986 M203.268 123.109 C 203.136 123.834,203.227 152.322,203.361 152.412 C 203.413 152.446,246.243 152.453,298.539 152.427 L 393.623 152.380 392.787 149.178 C 390.684 141.118,387.367 131.223,384.363 124.047 L 383.716 122.502 293.547 122.502 L 203.378 122.502 203.268 123.109 M203.269 184.547 C 203.208 184.881,203.183 191.583,203.213 199.440 L 203.268 213.725 301.052 213.772 L 398.836 213.819 398.949 212.559 C 399.380 207.736,399.255 189.754,398.757 185.014 L 398.645 183.940 301.011 183.940 L 203.378 183.940 203.269 184.547 M6.830 249.321 C 7.953 253.704,8.168 254.465,9.649 259.290 C 10.887 263.325,12.700 268.523,14.223 272.409 L 15.339 275.257 200.000 275.257 L 384.661 275.257 385.777 272.409 C 387.300 268.523,389.113 263.325,390.351 259.290 C 391.832 254.465,392.047 253.704,393.170 249.321 L 394.180 245.378 200.000 245.378 L 5.820 245.378 6.830 249.321 M34.370 310.924 C 40.439 319.957,46.870 328.087,53.978 335.714 L 55.240 337.068 200.000 337.068 L 344.760 337.068 346.022 335.714 C 353.103 328.116,359.419 320.140,365.502 311.111 L 368.081 307.283 307.243 307.236 C 273.782 307.211,198.118 307.169,139.101 307.143 L 31.797 307.096 34.370 310.924 M96.078 370.151 C 159.117 408.971,240.883 408.971,303.922 370.151 L 305.789 369.001 200.000 369.001 L 94.211 369.001 96.078 370.151 " stroke="none" fill="#cb060e" fill-rule="evenodd"></path><path id="path1" d="M191.317 0.867 C 190.906 0.898,188.889 1.018,186.835 1.132 C 184.781 1.247,183.020 1.417,182.923 1.511 C 182.825 1.604,182.022 1.681,181.138 1.681 C 178.577 1.681,170.868 2.675,170.868 3.005 C 170.868 3.098,170.242 3.175,169.477 3.175 C 167.491 3.175,155.013 5.526,154.538 5.989 C 154.440 6.085,154.121 6.162,153.828 6.162 C 151.870 6.162,131.296 12.374,129.425 13.530 C 129.154 13.698,129.632 14.936,130.204 15.548 L 130.734 16.116 133.994 16.010 C 136.955 15.915,137.291 15.936,137.670 16.243 C 138.329 16.776,137.962 17.496,136.660 18.228 C 135.524 18.867,132.639 20.993,132.266 21.467 C 131.871 21.967,132.159 23.198,133.426 26.424 C 134.521 29.210,133.781 30.431,131.987 28.798 C 131.115 28.004,128.632 26.147,127.977 25.800 C 127.015 25.290,126.080 25.627,124.179 27.171 C 123.546 27.684,122.692 28.378,122.279 28.713 C 120.386 30.250,119.573 29.520,120.460 27.077 C 122.507 21.441,122.548 21.873,119.778 19.817 L 117.791 18.341 116.365 18.991 C 87.971 31.923,61.369 53.235,41.705 78.805 L 40.197 80.766 43.693 80.711 L 47.190 80.657 47.673 80.151 C 48.139 79.664,49.069 77.302,49.569 75.337 C 50.243 72.693,51.324 72.801,52.094 75.590 C 52.767 78.028,53.432 79.711,53.909 80.189 L 54.393 80.672 57.785 80.672 C 61.346 80.672,61.625 80.733,61.625 81.515 C 61.625 82.034,61.056 82.544,58.312 84.483 C 55.342 86.583,55.428 86.238,56.847 90.334 C 58.299 94.526,57.819 95.501,55.366 93.340 C 53.777 91.940,51.219 90.196,50.762 90.200 C 50.369 90.204,49.321 90.925,46.337 93.245 C 43.825 95.197,43.185 94.397,44.495 90.943 C 45.079 89.402,45.567 87.980,45.694 87.445 C 45.940 86.417,45.673 86.140,41.823 83.425 C 40.441 82.450,40.030 82.039,39.935 81.536 C 39.820 80.923,33.174 90.583,29.224 97.105 L 27.585 99.812 27.809 100.653 C 28.272 102.393,28.127 102.334,31.949 102.334 C 36.983 102.334,37.393 102.906,34.058 105.273 C 29.921 108.209,30.100 107.839,31.259 111.060 C 32.225 113.745,32.502 114.965,32.282 115.560 C 31.980 116.377,31.695 116.226,27.313 112.932 C 25.634 111.669,25.221 111.612,24.074 112.485 C 22.271 113.855,19.433 115.932,19.278 115.994 C 18.887 116.150,14.832 125.797,12.696 131.653 C 8.804 142.322,5.263 155.638,3.500 166.240 C 3.388 166.911,3.384 166.911,6.723 166.808 C 11.939 166.649,12.076 167.429,7.432 170.834 C 4.602 172.908,4.664 172.574,6.243 177.218 C 7.580 181.154,6.999 181.493,3.498 178.822 C 2.601 178.138,1.867 177.656,1.867 177.752 C 1.867 177.848,1.703 179.763,1.502 182.007 C 0.740 190.497,0.515 205.763,1.049 212.652 L 1.168 214.192 101.862 214.192 C 199.668 214.192,202.565 214.182,202.870 213.846 C 203.160 213.525,203.182 211.365,203.163 184.014 C 203.152 167.797,203.144 154.402,203.145 154.248 C 203.149 153.696,203.176 27.809,203.175 14.426 L 203.175 0.747 197.619 0.778 C 194.563 0.796,191.727 0.835,191.317 0.867 M178.185 8.637 C 178.498 8.887,179.047 10.304,180.048 13.442 C 180.944 16.249,180.684 16.108,184.791 16.031 C 187.797 15.974,188.260 16.005,188.532 16.277 C 188.979 16.723,188.731 17.505,188.020 17.893 C 184.780 19.663,182.570 21.780,183.041 22.661 C 183.153 22.869,183.437 23.632,183.674 24.358 C 183.911 25.083,184.275 26.139,184.483 26.704 C 185.649 29.868,184.757 30.218,181.620 27.826 C 177.695 24.834,178.114 24.787,172.880 28.800 C 171.760 29.659,171.285 29.815,170.915 29.445 C 170.577 29.108,170.618 28.932,171.878 25.303 C 172.846 22.515,172.930 21.720,172.316 21.152 C 171.807 20.681,168.879 18.540,168.033 18.020 C 167.361 17.608,166.923 16.900,167.082 16.486 C 167.271 15.992,167.979 15.909,171.100 16.012 L 174.204 16.114 174.747 15.571 C 175.278 15.040,176.292 12.337,176.841 9.991 C 177.155 8.644,177.615 8.181,178.185 8.637 M101.842 30.175 C 102.145 30.291,102.611 31.459,103.734 34.921 C 104.665 37.788,104.218 37.535,108.345 37.535 C 113.627 37.535,113.913 38.136,109.897 40.789 C 106.249 43.199,106.352 42.924,107.649 46.766 C 108.867 50.373,108.935 51.167,108.023 51.167 C 107.770 51.167,104.426 48.967,103.364 48.101 C 101.782 46.812,101.609 46.802,100.173 47.919 C 94.330 52.462,93.591 52.155,95.912 46.153 C 96.889 43.627,96.742 43.073,94.736 41.719 C 89.205 37.988,89.209 37.535,94.771 37.535 C 99.117 37.535,99.044 37.608,100.543 31.755 C 100.947 30.180,101.165 29.915,101.842 30.175 M153.005 30.342 C 153.328 30.666,154.067 32.848,154.616 35.099 C 155.222 37.582,155.132 37.535,159.242 37.535 C 162.767 37.535,163.399 37.645,163.399 38.261 C 163.399 38.673,161.665 40.350,160.773 40.801 C 159.995 41.195,158.166 42.516,157.843 42.918 C 157.477 43.374,157.568 44.556,158.066 45.813 C 158.317 46.447,158.580 47.218,158.651 47.526 C 158.722 47.834,158.985 48.581,159.236 49.186 C 159.777 50.495,159.701 51.167,159.011 51.167 C 158.519 51.167,155.465 49.185,154.084 47.969 C 152.728 46.776,152.232 46.838,150.253 48.449 C 146.729 51.318,145.028 51.811,145.641 49.785 C 147.732 42.882,147.706 42.600,144.830 41.140 C 143.683 40.558,141.916 39.183,141.648 38.665 C 141.166 37.732,141.497 37.640,145.728 37.535 L 149.477 37.442 150.069 35.761 C 150.394 34.837,150.889 33.366,151.169 32.493 C 151.925 30.128,152.324 29.661,153.005 30.342 M76.798 52.054 C 77.141 52.439,77.650 53.955,78.230 56.324 C 78.723 58.334,79.184 59.192,79.783 59.209 C 80.015 59.216,81.704 59.237,83.535 59.256 C 88.446 59.307,88.488 59.453,84.461 62.445 C 80.667 65.264,80.725 64.949,82.941 70.718 C 83.408 71.932,83.349 72.714,82.786 72.794 C 82.102 72.891,81.726 72.644,77.818 69.534 C 76.241 68.279,75.970 68.372,72.082 71.494 C 70.114 73.074,69.163 73.228,69.335 71.941 C 69.447 71.106,70.470 67.424,70.867 66.429 C 71.406 65.079,70.987 64.537,67.503 62.085 C 63.877 59.532,64.162 59.161,69.697 59.227 C 71.518 59.249,73.070 59.205,73.146 59.129 C 73.345 58.930,74.103 56.884,74.504 55.462 C 75.528 51.831,75.988 51.147,76.798 52.054 M178.408 52.148 C 178.706 52.621,179.645 55.298,179.646 55.680 C 179.647 56.006,180.752 58.867,180.962 59.086 C 181.051 59.180,182.602 59.237,184.408 59.215 C 189.839 59.147,190.233 59.585,186.835 61.912 C 185.626 62.740,184.839 63.368,183.520 64.555 C 182.788 65.214,182.798 65.275,184.398 69.748 C 185.505 72.841,184.658 73.604,182.256 71.677 C 180.911 70.598,178.715 69.006,178.245 68.769 C 177.733 68.512,177.605 68.582,175.108 70.495 C 171.551 73.219,170.226 73.542,170.887 71.524 C 171.631 69.251,171.900 68.474,172.288 67.475 C 173.211 65.100,172.793 64.513,167.616 60.919 C 165.765 59.634,166.683 59.182,171.063 59.222 C 173.205 59.241,174.476 59.178,174.735 59.040 C 175.118 58.835,176.420 55.331,176.759 53.595 C 177.103 51.832,177.815 51.207,178.408 52.148 M127.701 52.158 C 127.813 52.292,128.025 52.860,128.172 53.419 C 129.716 59.262,129.758 59.306,133.707 59.228 C 138.757 59.127,139.281 59.540,136.575 61.489 C 133.651 63.595,132.122 64.888,132.062 65.303 C 132.006 65.692,132.538 67.408,133.451 69.782 C 134.604 72.779,133.730 73.655,131.492 71.744 C 129.606 70.135,127.517 68.721,127.024 68.721 C 126.548 68.721,125.754 69.263,122.996 71.471 C 120.204 73.706,119.382 73.044,120.710 69.626 C 120.963 68.974,121.292 68.063,121.441 67.600 C 121.590 67.138,121.822 66.493,121.957 66.166 C 122.329 65.260,122.022 64.839,119.788 63.192 C 116.360 60.665,115.941 60.309,116.004 59.982 C 116.132 59.314,116.864 59.178,120.075 59.229 C 123.570 59.284,123.853 59.228,124.239 58.396 C 124.583 57.658,125.572 54.734,125.865 53.595 C 126.255 52.078,127.091 51.423,127.701 52.158 M102.875 75.652 C 104.664 81.092,104.172 80.653,108.549 80.715 C 113.438 80.785,113.698 81.233,110.253 83.660 C 109.159 84.430,107.886 85.413,107.423 85.843 C 106.457 86.741,106.455 86.566,107.475 89.356 C 109.548 95.025,109.114 95.497,104.814 92.250 C 101.699 89.899,101.632 89.881,100.140 91.006 C 96.358 93.856,95.696 94.323,95.283 94.426 C 94.130 94.716,94.278 93.611,96.003 89.038 C 96.946 86.537,96.943 86.531,93.417 83.948 C 92.056 82.951,90.943 82.065,90.943 81.979 C 90.943 81.894,90.896 81.701,90.839 81.552 C 90.557 80.817,91.190 80.672,94.688 80.672 L 98.033 80.672 98.577 80.159 C 99.139 79.629,100.292 76.587,100.558 74.935 C 100.944 72.533,101.952 72.845,102.875 75.652 M153.157 73.775 C 153.340 74.025,153.710 75.028,153.978 76.004 C 155.383 81.106,154.884 80.672,159.338 80.672 C 162.932 80.672,163.212 80.733,163.212 81.512 C 163.212 82.031,162.225 82.943,159.901 84.573 C 157.296 86.400,157.201 86.653,158.156 89.204 C 160.576 95.665,160.050 95.900,154.066 91.029 C 152.490 89.746,152.726 89.658,147.744 93.396 C 144.986 95.465,144.910 94.947,146.996 88.297 C 147.604 86.360,147.454 86.125,144.164 83.874 C 142.325 82.616,141.791 82.151,141.664 81.699 C 141.421 80.838,141.675 80.772,145.604 80.672 L 149.300 80.579 149.801 79.552 C 150.077 78.987,150.441 78.063,150.610 77.498 C 151.847 73.366,152.337 72.651,153.157 73.775 M76.810 95.201 C 77.207 95.639,77.515 96.542,78.155 99.135 C 78.504 100.551,78.830 101.437,79.132 101.796 L 79.585 102.334 82.849 102.334 C 88.019 102.334,88.243 102.999,84.047 105.890 C 80.954 108.021,80.883 108.176,81.846 110.706 C 83.545 115.170,83.681 116.673,82.318 115.950 C 81.790 115.669,78.614 113.330,77.604 112.477 C 76.460 111.512,76.064 111.604,73.657 113.399 C 70.605 115.674,70.089 116.005,69.714 115.934 C 69.034 115.805,69.250 114.522,70.684 110.170 C 71.412 107.963,71.388 107.918,68.459 105.895 C 64.092 102.879,64.273 102.334,69.638 102.334 C 73.558 102.334,73.186 102.540,74.044 99.907 C 75.763 94.639,75.975 94.278,76.810 95.201 M178.427 95.285 C 178.591 95.516,178.939 96.419,179.202 97.292 C 180.844 102.742,180.407 102.334,184.609 102.334 C 189.408 102.334,189.860 102.905,186.780 105.078 C 182.502 108.098,182.599 107.890,183.865 111.312 C 185.840 116.655,185.309 117.053,180.766 113.632 C 177.799 111.398,178.083 111.388,174.789 113.832 C 171.492 116.279,171.140 116.431,170.817 115.555 C 170.707 115.256,171.783 111.654,172.437 110.137 C 173.212 108.336,173.066 108.081,169.900 105.727 C 165.926 102.771,166.087 102.334,171.148 102.334 C 173.944 102.334,174.429 102.291,174.776 102.007 C 175.144 101.707,176.633 97.818,176.652 97.106 C 176.696 95.443,177.764 94.347,178.427 95.285 M127.806 95.472 C 127.955 95.703,128.135 96.228,128.207 96.639 C 128.278 97.049,128.489 97.764,128.675 98.226 C 128.861 98.688,129.148 99.551,129.312 100.144 C 129.477 100.737,129.844 101.483,130.129 101.802 L 130.646 102.381 133.853 102.348 C 139.160 102.295,139.241 102.771,134.501 106.144 C 132.221 107.766,131.842 108.216,132.081 109.013 C 132.135 109.191,132.525 110.303,132.948 111.485 C 134.514 115.855,134.147 117.151,131.906 115.161 C 130.268 113.705,127.517 111.858,126.987 111.858 C 126.667 111.858,125.991 112.239,125.102 112.921 C 124.340 113.506,123.134 114.430,122.423 114.975 C 119.635 117.113,119.451 115.290,121.872 109.497 C 122.390 108.257,122.017 107.798,118.487 105.335 C 114.989 102.894,115.343 102.302,120.272 102.348 C 124.318 102.387,124.466 102.239,125.802 96.825 C 126.226 95.106,127.163 94.473,127.806 95.472 M102.327 117.260 C 102.533 117.663,102.907 118.693,103.158 119.548 C 103.727 121.486,104.512 123.635,104.731 123.853 C 104.821 123.944,106.501 124.034,108.464 124.054 C 111.512 124.084,112.077 124.135,112.343 124.401 C 112.895 124.953,112.547 125.556,111.292 126.225 C 110.668 126.558,109.679 127.227,109.094 127.714 C 108.509 128.200,107.791 128.753,107.499 128.944 C 106.540 129.570,106.547 129.897,107.584 132.874 C 109.507 138.387,109.004 138.728,104.295 135.104 C 101.575 133.011,101.791 132.993,98.315 135.583 C 94.338 138.547,93.859 138.370,95.252 134.454 C 96.405 131.215,96.640 130.234,96.393 129.692 C 96.123 129.101,93.144 126.824,91.333 125.826 C 90.609 125.426,90.549 124.701,91.205 124.271 C 91.572 124.031,92.220 123.982,94.799 124.005 C 98.264 124.034,98.496 123.992,98.873 123.262 C 99.216 122.598,100.166 119.688,100.461 118.394 C 100.917 116.399,101.658 115.948,102.327 117.260 M153.417 117.521 C 153.668 118.068,154.086 119.392,154.346 120.463 C 155.264 124.234,155.004 124.047,159.252 124.010 C 162.263 123.984,162.634 124.015,163.023 124.331 C 163.651 124.839,163.424 125.491,162.424 126.045 C 161.557 126.526,158.467 128.766,157.937 129.297 C 157.505 129.730,157.527 130.736,157.994 132.026 C 159.672 136.660,159.853 137.628,159.039 137.628 C 158.566 137.628,158.344 137.488,155.952 135.682 C 153.149 133.566,153.074 133.520,152.449 133.520 C 151.994 133.520,151.420 133.853,150.016 134.931 C 145.448 138.440,144.931 138.465,145.927 135.123 C 147.639 129.380,147.579 129.899,146.639 129.018 C 145.674 128.115,143.943 126.860,142.690 126.158 C 141.450 125.462,141.201 124.794,141.990 124.277 C 142.381 124.021,142.982 123.980,145.835 124.014 C 149.389 124.056,149.738 123.976,149.761 123.113 C 149.764 122.987,149.970 122.356,150.218 121.712 C 150.467 121.068,150.894 119.815,151.168 118.926 C 152.013 116.187,152.630 115.801,153.417 117.521 M51.392 117.040 C 51.630 117.315,52.066 118.584,53.237 122.409 C 53.332 122.717,53.608 123.217,53.851 123.521 L 54.292 124.072 57.764 124.081 C 60.747 124.088,61.280 124.133,61.548 124.401 C 62.026 124.878,61.758 125.544,60.930 125.937 C 60.191 126.288,57.233 128.396,56.349 129.201 C 55.652 129.836,55.685 130.165,56.780 133.382 C 57.810 136.411,57.926 137.490,57.229 137.590 C 56.816 137.649,56.672 137.553,53.666 135.242 C 50.727 132.982,50.833 132.978,47.591 135.497 C 43.470 138.701,43.065 138.383,44.817 133.320 C 45.868 130.283,45.926 129.827,45.331 129.272 C 44.551 128.544,41.037 126.050,40.793 126.050 C 40.397 126.050,39.801 125.153,39.913 124.727 C 40.079 124.091,40.818 123.966,44.071 124.024 C 47.392 124.083,47.477 124.065,47.911 123.227 C 48.257 122.558,49.673 118.321,49.673 117.955 C 49.673 117.072,50.869 116.436,51.392 117.040 M26.031 138.725 C 26.167 138.995,26.682 140.462,27.176 141.984 C 27.669 143.507,28.238 144.963,28.440 145.219 L 28.807 145.686 32.233 145.627 C 37.135 145.544,37.579 146.172,34.194 148.400 C 30.044 151.132,30.083 151.044,31.385 154.715 C 33.219 159.884,32.294 160.153,26.953 156.006 C 25.568 154.931,25.194 154.944,23.729 156.120 C 23.086 156.636,22.295 157.194,21.971 157.360 C 21.647 157.525,21.088 157.886,20.728 158.162 C 18.366 159.974,17.872 159.314,19.059 155.929 C 20.794 150.980,20.920 151.427,17.032 148.744 C 13.271 146.148,13.518 145.534,18.290 145.625 C 21.998 145.696,22.387 145.584,22.854 144.308 C 23.579 142.326,24.075 140.747,24.277 139.772 C 24.628 138.082,25.458 137.586,26.031 138.725 M77.074 138.936 C 77.302 139.398,77.753 140.784,78.074 142.017 C 79.062 145.806,78.915 145.704,83.309 145.630 C 88.087 145.548,88.356 146.228,84.550 148.768 C 82.186 150.346,81.492 150.946,81.343 151.539 C 81.231 151.984,82.107 155.039,82.933 157.084 C 83.785 159.193,82.925 159.645,80.880 158.164 C 80.489 157.881,79.910 157.515,79.594 157.351 C 79.277 157.188,78.537 156.632,77.949 156.118 C 76.584 154.924,76.049 154.888,74.768 155.907 C 73.382 157.008,70.754 158.728,70.271 158.849 C 68.973 159.175,69.035 158.490,70.798 152.986 C 71.364 151.218,71.107 150.856,67.675 148.590 C 64.022 146.177,64.349 145.537,69.190 145.626 C 73.571 145.707,73.128 146.090,74.871 140.710 C 75.837 137.726,76.293 137.359,77.074 138.936 M178.077 138.145 C 178.419 138.374,178.655 138.945,179.722 142.127 C 181.004 145.953,180.673 145.712,184.500 145.611 C 188.024 145.518,188.609 145.631,188.609 146.403 C 188.609 147.087,188.223 147.495,186.667 148.453 C 182.732 150.878,182.653 151.056,183.912 154.720 C 185.680 159.868,184.698 160.173,179.555 156.073 C 178.290 155.065,177.515 154.917,176.923 155.572 C 176.729 155.786,175.642 156.579,174.509 157.334 C 170.517 159.992,170.249 159.783,171.802 155.220 C 173.188 151.149,173.197 151.177,169.830 148.935 C 165.669 146.163,165.974 145.456,171.259 145.617 L 174.170 145.706 174.747 145.169 C 175.302 144.652,176.843 140.525,176.845 139.550 C 176.846 139.168,177.513 138.000,177.728 138.005 C 177.807 138.006,177.964 138.069,178.077 138.145 M127.646 138.647 C 127.898 138.899,128.104 139.214,128.103 139.347 C 128.096 140.110,129.742 144.642,130.208 145.146 L 130.725 145.704 133.756 145.651 C 137.574 145.585,137.576 145.585,137.809 146.021 C 138.084 146.535,137.726 147.225,136.901 147.771 C 136.531 148.016,135.490 148.703,134.588 149.298 C 131.576 151.285,131.571 151.317,133.464 156.267 C 134.455 158.859,133.618 159.667,131.581 158.085 C 130.979 157.618,130.428 157.236,130.356 157.236 C 130.283 157.236,129.614 156.774,128.868 156.209 C 127.171 154.923,126.918 154.921,125.235 156.172 C 119.850 160.173,119.391 160.044,121.077 155.004 C 122.432 150.954,122.551 151.223,118.157 148.396 C 114.825 146.252,115.403 145.473,120.218 145.619 L 123.267 145.711 123.803 145.197 C 124.305 144.717,125.577 141.380,125.949 139.568 C 126.203 138.335,126.936 137.937,127.646 138.647 M102.093 159.711 C 102.319 160.008,102.762 161.221,103.338 163.119 C 104.551 167.113,104.199 166.847,108.167 166.784 C 111.596 166.729,112.418 166.865,112.418 167.487 C 112.418 168.180,112.167 168.490,110.756 169.540 C 106.197 172.931,106.397 172.530,107.592 175.882 C 109.514 181.277,108.896 181.674,104.187 178.063 C 101.597 176.077,101.776 176.070,98.856 178.266 C 94.509 181.535,93.869 181.326,95.353 177.124 C 96.925 172.671,96.961 172.876,94.273 170.868 C 89.420 167.242,89.469 166.862,94.787 166.837 L 98.287 166.820 98.694 166.347 C 99.129 165.841,100.133 163.029,100.480 161.345 C 100.814 159.716,101.539 158.982,102.093 159.711 M153.385 160.317 C 153.579 160.728,153.992 162.107,154.302 163.382 C 154.734 165.154,154.989 165.836,155.384 166.277 L 155.900 166.853 159.042 166.792 C 164.475 166.685,164.669 167.324,160.204 170.618 C 157.095 172.910,157.171 172.578,158.717 177.112 C 160.256 181.625,159.163 181.620,153.795 177.090 C 152.685 176.154,152.321 176.239,150.057 177.965 C 144.917 181.884,144.791 181.758,146.910 174.840 C 147.573 172.676,147.569 172.670,144.638 170.500 C 142.126 168.640,141.737 168.240,141.737 167.515 C 141.737 166.857,142.508 166.726,146.002 166.790 C 149.946 166.861,149.420 167.359,151.162 161.905 C 152.013 159.241,152.660 158.779,153.385 160.317 M51.659 160.411 C 51.782 160.770,52.234 162.170,52.662 163.522 C 53.762 166.991,53.582 166.869,57.485 166.791 C 60.806 166.725,61.625 166.862,61.625 167.487 C 61.625 168.206,61.354 168.485,58.847 170.348 C 55.276 173.003,55.425 172.605,56.685 176.097 C 58.230 180.381,57.762 181.696,55.417 179.658 C 54.466 178.831,51.978 176.992,51.375 176.669 C 50.611 176.260,50.306 176.435,46.149 179.665 C 43.791 181.496,43.358 180.536,44.750 176.564 C 46.165 172.528,46.308 172.969,42.720 170.326 C 38.610 167.298,38.834 166.658,43.952 166.803 C 46.953 166.889,47.122 166.874,47.554 166.500 C 48.008 166.105,49.355 162.727,49.602 161.363 C 49.930 159.548,51.165 158.976,51.659 160.411 M25.762 181.317 C 25.962 181.518,26.348 182.421,26.620 183.325 C 28.281 188.859,27.899 188.494,31.971 188.440 C 35.656 188.392,36.228 188.510,36.228 189.319 C 36.228 189.931,35.899 190.268,34.174 191.421 C 30.015 194.199,30.021 194.179,31.826 198.931 C 33.284 202.771,32.376 203.045,28.344 199.984 C 25.250 197.634,25.470 197.688,23.903 198.875 C 17.690 203.581,17.434 203.550,19.234 198.319 C 20.661 194.175,20.758 194.476,17.134 191.804 C 13.176 188.887,13.383 188.399,18.564 188.431 C 21.960 188.452,22.365 188.376,22.739 187.643 C 23.027 187.077,24.014 183.924,24.278 182.726 C 24.639 181.089,25.098 180.653,25.762 181.317 M77.100 181.974 C 77.344 182.484,77.788 183.899,78.087 185.118 C 78.945 188.613,78.738 188.475,83.044 188.432 C 88.161 188.380,88.425 189.167,84.244 192.010 C 80.977 194.232,80.961 194.284,82.350 198.321 C 84.050 203.263,83.770 203.421,79.290 200.044 C 75.949 197.524,76.571 197.474,72.397 200.607 C 68.792 203.314,68.629 202.853,70.760 195.985 C 71.269 194.348,71.096 194.051,68.618 192.300 C 63.846 188.930,63.995 188.366,69.635 188.441 C 73.699 188.494,73.129 189.035,74.969 183.380 C 75.858 180.649,76.322 180.343,77.100 181.974 M178.093 181.099 C 178.395 181.291,179.030 182.812,179.469 184.395 C 179.950 186.133,180.748 188.203,180.996 188.356 C 181.106 188.424,182.702 188.461,184.544 188.439 C 190.149 188.372,190.227 188.793,185.280 192.456 C 182.674 194.385,182.727 194.183,183.904 197.665 C 184.882 200.556,185.061 201.605,184.650 202.017 C 184.238 202.429,183.901 202.252,181.108 200.163 C 177.562 197.511,178.274 197.437,173.669 200.931 C 170.516 203.323,170.205 202.862,171.802 198.171 C 173.156 194.193,173.258 194.512,169.835 191.959 C 167.170 189.971,166.813 189.581,167.122 189.004 C 167.420 188.447,167.775 188.398,171.195 188.441 C 175.300 188.492,175.626 188.152,176.849 182.543 C 177.119 181.306,177.579 180.772,178.093 181.099 M127.646 181.597 C 127.898 181.850,128.105 182.186,128.105 182.345 C 128.105 182.622,128.953 185.429,129.526 187.045 C 130.035 188.484,130.126 188.514,133.824 188.449 C 139.286 188.353,139.439 188.894,134.870 192.134 C 131.657 194.412,131.736 194.181,132.954 197.741 C 134.431 202.060,134.036 203.431,131.891 201.435 C 130.484 200.126,127.551 198.133,127.032 198.133 C 126.500 198.133,124.292 199.664,121.847 201.727 C 119.968 203.314,119.681 202.084,121.008 198.133 C 122.374 194.066,122.515 194.448,118.629 191.701 C 114.799 188.994,115.116 188.349,120.226 188.451 L 123.466 188.515 124.002 187.916 C 124.297 187.586,124.633 186.956,124.748 186.515 C 124.863 186.075,125.203 184.990,125.504 184.105 C 125.805 183.220,126.050 182.385,126.050 182.249 C 126.050 181.392,127.037 180.989,127.646 181.597 " stroke="none" fill="#062e66" fill-rule="evenodd"></path><path id="path2" d="M177.426 10.411 C 176.795 12.868,176.118 14.969,175.677 15.842 C 175.261 16.667,174.657 16.807,171.525 16.807 C 168.514 16.807,167.721 17.039,168.701 17.635 C 169.391 18.055,172.294 20.223,172.801 20.697 C 173.798 21.630,173.764 22.107,172.458 25.499 C 171.296 28.515,171.616 28.936,173.794 27.257 C 177.892 24.098,177.983 24.091,181.232 26.690 C 184.460 29.270,184.659 29.108,183.169 25.117 C 181.771 21.374,181.865 21.166,186.332 18.137 C 188.026 16.988,187.900 16.915,184.052 16.807 C 180.314 16.701,180.697 16.872,179.868 14.939 C 179.626 14.374,179.280 13.366,179.100 12.698 C 178.370 9.999,177.750 9.152,177.426 10.411 M126.745 14.535 C 125.601 15.013,125.003 15.378,124.765 15.743 C 124.226 16.571,123.812 16.756,122.316 16.843 C 121.283 16.903,120.602 17.069,119.723 17.474 L 118.531 18.024 120.003 19.130 C 123.442 21.715,123.362 21.241,121.273 26.661 C 120.269 29.265,120.698 29.240,123.905 26.508 C 125.234 25.376,126.825 24.575,127.393 24.752 C 128.071 24.963,130.130 26.349,131.519 27.529 C 133.375 29.106,133.675 28.894,132.773 26.640 C 132.465 25.871,132.212 25.171,132.212 25.086 C 132.212 25.000,132.003 24.426,131.750 23.810 C 130.836 21.592,131.397 20.791,135.913 17.867 C 137.212 17.026,136.939 16.911,133.393 16.807 C 129.659 16.697,129.304 16.506,128.781 14.332 C 128.632 13.710,128.750 13.698,126.745 14.535 M203.741 29.866 C 203.613 30.106,203.548 35.118,203.548 44.818 C 203.548 54.518,203.613 59.529,203.741 59.770 C 203.932 60.126,204.904 60.131,272.976 60.124 L 342.017 60.117 338.838 56.996 C 329.202 47.533,317.970 38.694,305.990 31.144 L 303.391 29.505 253.663 29.505 C 204.689 29.505,203.932 29.511,203.741 29.866 M101.251 31.688 C 101.155 31.874,101.016 32.362,100.943 32.773 C 100.096 37.538,99.377 38.282,95.616 38.282 C 92.709 38.282,92.063 38.352,92.063 38.666 C 92.063 38.926,93.221 39.950,94.118 40.483 C 96.501 41.900,97.462 42.961,97.239 43.929 C 97.087 44.591,96.422 46.677,96.004 47.806 C 94.965 50.610,95.873 50.442,100.164 47.035 C 101.562 45.926,101.758 45.971,104.437 48.020 C 105.943 49.172,107.330 50.047,107.649 50.047 C 107.919 50.047,107.674 48.955,106.912 46.762 C 105.582 42.936,105.781 42.427,109.435 40.301 C 112.177 38.706,111.824 38.282,107.756 38.282 C 105.017 38.282,104.597 38.242,104.343 37.955 C 103.970 37.535,103.168 35.618,102.872 34.437 C 102.307 32.185,101.608 30.998,101.251 31.688 M151.916 32.414 C 151.656 33.002,151.317 33.968,151.164 34.561 C 150.773 36.068,149.868 38.016,149.491 38.161 C 149.318 38.227,147.848 38.282,146.226 38.282 C 142.136 38.282,141.927 38.660,145.011 40.480 C 147.542 41.974,148.357 43.074,147.940 44.433 C 147.828 44.799,147.531 45.770,147.280 46.592 C 146.137 50.328,146.394 50.476,149.716 47.993 C 152.397 45.988,152.638 45.939,154.065 47.106 C 158.181 50.469,159.320 50.579,157.977 47.484 C 157.525 46.441,156.863 44.007,156.863 43.386 C 156.863 42.725,157.904 41.755,159.926 40.534 C 163.036 38.655,162.821 38.282,158.628 38.282 C 154.785 38.282,154.671 38.217,154.081 35.710 C 153.073 31.427,152.642 30.771,151.916 32.414 M76.023 53.185 C 75.726 53.740,75.106 55.470,74.906 56.303 C 74.093 59.684,73.725 59.944,69.738 59.944 C 65.625 59.944,65.594 59.996,68.520 61.977 C 71.920 64.279,72.169 64.774,71.268 67.436 C 69.904 71.464,70.082 72.393,71.916 70.818 C 72.730 70.119,74.367 68.875,75.252 68.283 C 75.506 68.113,75.981 67.974,76.308 67.974 C 76.903 67.974,77.084 68.095,80.542 70.822 C 82.463 72.336,82.791 71.800,81.675 68.973 C 80.100 64.984,80.188 64.674,83.578 62.278 C 86.884 59.942,86.884 59.944,83.123 59.944 C 78.814 59.944,78.475 59.817,77.987 58.027 C 77.840 57.489,77.493 56.191,77.214 55.141 C 76.672 53.096,76.352 52.570,76.023 53.185 M126.515 53.666 C 126.362 54.031,126.237 54.440,126.237 54.575 C 126.237 54.879,125.009 58.514,124.730 59.035 C 124.339 59.765,123.461 59.944,120.278 59.944 C 116.338 59.944,116.358 59.885,119.535 62.151 C 123.423 64.924,123.347 64.581,121.271 69.985 C 120.398 72.259,120.797 72.382,123.101 70.549 C 127.257 67.241,127.362 67.247,131.593 71.008 C 132.557 71.866,133.016 72.071,133.224 71.735 C 133.336 71.553,133.241 71.234,132.302 68.627 C 130.863 64.631,130.787 64.871,134.284 62.359 C 137.663 59.934,137.665 59.944,133.826 59.944 C 129.452 59.944,129.586 60.029,128.488 56.546 C 127.327 52.863,127.031 52.430,126.515 53.666 M177.400 53.514 C 177.300 53.777,177.218 54.184,177.218 54.418 C 177.218 54.839,177.091 55.270,176.224 57.791 C 175.534 59.801,175.448 59.839,171.416 59.909 C 167.368 59.980,167.374 59.971,169.978 61.840 C 174.018 64.740,174.013 64.726,172.193 69.655 C 171.196 72.355,171.560 72.339,175.275 69.514 C 177.886 67.530,177.874 67.530,180.386 69.421 C 183.312 71.623,183.439 71.709,183.795 71.709 C 184.289 71.709,184.216 71.295,183.266 68.720 C 181.728 64.553,181.529 64.967,186.975 60.996 C 188.280 60.044,188.043 59.945,184.454 59.937 C 180.247 59.929,180.134 59.846,179.100 56.022 C 178.406 53.457,177.775 52.526,177.400 53.514 M101.237 74.919 C 101.147 75.156,101.012 75.728,100.936 76.190 C 100.860 76.653,100.607 77.493,100.374 78.058 C 100.140 78.623,99.895 79.339,99.829 79.649 C 99.508 81.157,98.383 81.679,95.865 81.487 C 91.994 81.192,91.543 81.641,93.931 83.411 C 97.506 86.062,97.591 86.223,96.733 88.737 C 94.891 94.132,94.859 94.116,99.954 90.262 C 101.543 89.059,101.816 89.108,104.403 91.052 C 107.048 93.040,107.526 93.310,107.681 92.907 C 107.846 92.477,107.236 90.362,106.427 88.557 C 106.074 87.770,105.961 86.587,106.182 86.010 C 106.301 85.700,108.587 83.893,109.936 83.041 C 111.969 81.758,111.465 81.397,107.732 81.462 C 104.144 81.524,103.765 81.218,102.795 77.473 C 102.208 75.208,101.541 74.114,101.237 74.919 M152.090 75.210 C 151.927 75.595,151.623 76.457,151.415 77.124 C 150.044 81.510,150.028 81.525,146.422 81.462 C 142.311 81.391,142.146 81.619,144.925 83.525 C 147.958 85.605,148.505 86.525,147.752 88.280 C 147.249 89.450,146.545 92.231,146.669 92.555 C 146.859 93.051,147.391 92.793,149.600 91.130 C 152.238 89.144,152.738 89.022,153.981 90.064 C 158.160 93.566,159.319 93.763,158.036 90.756 C 156.372 86.859,156.519 85.972,159.120 84.220 C 162.881 81.687,162.788 81.231,158.561 81.486 C 155.047 81.697,154.750 81.467,153.777 77.778 C 152.831 74.192,152.642 73.904,152.090 75.210 M50.461 74.930 C 50.356 75.058,50.173 75.542,50.054 76.004 C 48.732 81.153,48.261 81.629,44.631 81.477 C 40.617 81.309,40.479 81.623,43.597 83.826 C 46.650 85.983,46.947 86.529,46.134 88.481 C 44.262 92.975,44.266 93.972,46.149 92.495 C 51.092 88.618,51.054 88.618,55.402 92.484 C 57.062 93.959,57.240 93.638,56.307 90.852 C 55.939 89.749,55.513 88.608,55.363 88.317 C 54.554 86.753,55.031 85.937,57.981 83.832 C 61.105 81.604,60.973 81.309,56.928 81.478 C 53.274 81.631,53.158 81.521,51.692 76.471 C 51.318 75.184,51.071 74.697,50.794 74.697 C 50.716 74.697,50.567 74.802,50.461 74.930 M203.772 91.541 C 203.440 91.873,203.449 120.802,203.782 121.255 C 204.008 121.563,382.857 121.781,383.164 121.473 C 383.795 120.842,373.366 100.987,368.133 92.857 L 367.142 91.317 285.569 91.317 C 222.373 91.317,203.946 91.367,203.772 91.541 M76.051 96.218 C 75.949 96.347,75.632 97.166,75.346 98.039 C 73.533 103.575,73.941 103.175,70.108 103.175 C 66.387 103.175,66.100 103.350,67.825 104.566 C 71.990 107.501,72.231 107.845,71.509 109.804 C 70.959 111.295,70.408 113.366,70.405 113.959 C 70.399 114.804,70.897 114.595,73.391 112.701 C 76.142 110.612,76.443 110.538,77.705 111.642 C 79.027 112.798,81.616 114.659,81.902 114.659 C 82.357 114.659,82.205 113.618,81.419 111.346 C 80.206 107.835,80.249 107.705,83.396 105.482 C 84.833 104.466,85.528 103.860,85.528 103.622 C 85.528 103.200,85.598 103.209,82.166 103.190 C 78.404 103.169,78.494 103.245,77.508 99.278 C 76.712 96.079,76.505 95.645,76.051 96.218 M177.621 96.229 C 177.502 96.372,177.323 96.924,177.222 97.456 C 176.255 102.552,175.456 103.326,171.255 103.230 C 167.818 103.151,167.811 103.267,171.105 105.743 C 173.870 107.822,173.873 107.833,172.773 111.018 C 171.246 115.433,171.663 115.514,176.407 111.718 C 177.893 110.529,177.849 110.517,181.161 113.025 C 184.318 115.415,184.528 115.227,183.100 111.298 C 181.866 107.903,181.880 107.848,184.500 105.889 C 187.483 103.658,187.426 103.711,187.152 103.427 C 186.968 103.236,186.188 103.175,183.936 103.175 C 181.204 103.175,180.935 103.144,180.615 102.801 C 180.258 102.419,179.085 99.580,179.085 99.098 C 179.085 98.104,177.935 95.851,177.621 96.229 M126.514 96.805 C 126.362 97.169,126.237 97.576,126.237 97.709 C 126.237 98.388,124.723 102.253,124.285 102.690 C 123.804 103.171,123.778 103.175,120.833 103.175 C 116.795 103.175,116.766 103.257,120.001 105.551 C 122.962 107.651,123.267 108.326,122.218 110.458 C 121.965 110.971,121.756 111.559,121.753 111.765 C 121.750 111.970,121.595 112.474,121.409 112.885 C 120.191 115.575,120.716 115.490,124.633 112.369 C 126.305 111.036,127.038 110.740,127.739 111.115 C 128.278 111.404,132.153 114.411,132.307 114.660 C 132.370 114.762,132.594 114.846,132.805 114.846 C 133.388 114.846,133.146 113.800,131.719 110.146 C 130.872 107.980,131.046 107.660,134.290 105.412 C 137.293 103.330,137.171 103.000,133.469 103.198 C 129.552 103.407,129.300 103.137,127.615 96.920 C 127.369 96.013,126.867 95.960,126.514 96.805 M26.945 101.060 C 26.021 102.193,19.551 114.819,20.035 114.544 C 20.450 114.308,23.615 111.975,24.236 111.446 C 25.333 110.514,25.420 110.550,29.335 113.567 C 31.751 115.429,31.950 115.093,30.619 111.389 C 29.316 107.764,29.444 107.489,33.802 104.525 C 35.506 103.366,35.174 103.175,31.457 103.175 C 28.008 103.175,28.077 103.200,27.498 101.713 C 27.226 101.015,27.101 100.868,26.945 101.060 M50.337 118.249 C 50.178 118.477,50.047 118.792,50.048 118.949 C 50.050 119.466,48.678 123.519,48.328 124.030 C 47.824 124.766,46.970 124.964,44.492 124.916 C 40.521 124.839,40.510 124.854,43.193 126.745 C 46.664 129.191,46.932 129.620,46.200 131.559 C 43.928 137.584,43.958 137.624,48.158 134.106 C 50.618 132.046,51.933 132.369,55.751 135.971 C 56.956 137.108,57.252 136.539,56.489 134.551 C 56.232 133.881,55.812 132.785,55.556 132.116 C 54.562 129.525,55.063 128.806,60.205 125.451 C 60.835 125.040,59.842 124.854,56.971 124.846 C 53.094 124.834,53.141 124.885,51.438 118.768 C 51.165 117.788,50.786 117.609,50.337 118.249 M101.238 118.162 C 101.142 118.342,100.970 118.951,100.857 119.515 C 99.928 124.144,99.299 124.826,95.924 124.864 C 92.245 124.906,92.250 124.905,92.250 125.178 C 92.250 125.315,93.291 126.197,94.562 127.139 C 97.657 129.433,97.784 129.915,96.238 133.486 C 95.677 134.780,95.456 136.321,95.830 136.321 C 95.976 136.321,97.169 135.523,98.481 134.547 C 101.819 132.066,101.704 132.063,105.012 134.705 C 108.054 137.134,108.306 136.924,106.909 133.126 C 105.558 129.451,105.774 128.969,110.037 126.148 C 111.856 124.944,111.625 124.831,107.532 124.924 C 104.240 124.999,103.923 124.692,102.690 120.242 C 102.087 118.068,101.635 117.420,101.238 118.162 M152.225 118.077 C 152.114 118.210,151.802 119.030,151.531 119.897 C 149.924 125.046,150.151 124.830,146.307 124.867 C 143.073 124.899,142.497 125.031,143.261 125.568 C 148.547 129.279,148.531 129.252,147.445 132.464 C 146.035 136.634,146.287 136.922,149.276 134.553 C 152.052 132.353,152.782 132.195,154.274 133.472 C 158.269 136.891,159.091 137.044,158.067 134.174 C 156.269 129.135,156.130 129.505,161.153 125.992 C 161.567 125.703,161.905 125.345,161.905 125.198 C 161.905 124.899,161.928 124.901,158.127 124.863 L 155.563 124.837 155.015 124.276 C 154.563 123.814,154.349 123.246,153.791 121.019 C 153.010 117.908,152.758 117.435,152.225 118.077 M75.641 140.499 C 75.337 141.177,75.032 142.048,74.963 142.434 C 74.804 143.324,73.838 145.639,73.444 146.075 C 73.183 146.363,72.784 146.405,70.294 146.405 C 66.135 146.405,65.780 146.826,68.649 148.355 C 71.542 149.898,72.181 151.095,71.372 153.461 C 69.694 158.371,70.131 158.684,74.139 155.447 C 75.998 153.946,76.490 153.920,78.042 155.244 C 79.323 156.338,81.545 157.833,81.934 157.864 C 82.397 157.901,82.311 157.406,81.311 154.307 C 80.212 150.897,80.607 150.015,84.012 148.283 C 86.669 146.931,86.170 146.405,82.227 146.405 C 78.587 146.405,78.459 146.324,77.783 143.592 C 76.636 138.955,76.453 138.689,75.641 140.499 M24.864 140.196 C 24.024 143.580,23.390 145.295,22.759 145.892 L 22.216 146.405 19.371 146.408 C 15.593 146.412,15.233 146.692,17.288 148.032 C 19.328 149.363,20.468 150.300,20.803 150.922 L 21.155 151.576 20.173 154.608 C 19.475 156.760,19.248 157.698,19.390 157.840 C 19.617 158.067,21.208 157.093,23.521 155.309 C 25.219 154.000,25.680 153.985,27.118 155.198 C 28.129 156.050,30.982 157.983,31.229 157.983 C 31.625 157.983,31.500 157.309,30.629 154.745 C 29.603 151.721,29.595 151.678,29.909 150.989 C 30.147 150.465,32.303 148.660,33.277 148.167 C 35.811 146.886,35.269 146.405,31.293 146.405 C 28.814 146.405,28.404 146.363,28.150 146.078 C 27.730 145.610,26.935 143.737,26.592 142.409 C 25.905 139.746,25.200 138.843,24.864 140.196 M126.699 139.691 C 126.632 139.799,126.218 141.045,125.777 142.461 C 124.488 146.606,124.614 146.503,120.978 146.433 C 116.979 146.356,116.590 146.835,119.427 148.347 C 120.732 149.043,122.622 150.765,122.737 151.363 C 122.851 151.961,122.725 152.450,121.751 155.182 C 120.421 158.918,120.371 158.907,124.480 155.798 C 126.734 154.093,127.641 153.894,128.490 154.916 C 128.616 155.068,129.488 155.728,130.429 156.384 C 131.370 157.041,132.251 157.711,132.386 157.874 C 133.344 159.028,133.313 157.831,132.312 155.089 C 130.815 150.985,131.046 150.395,135.039 148.122 C 137.441 146.755,136.992 146.363,133.109 146.439 L 130.364 146.493 129.788 145.941 C 129.420 145.588,129.108 145.015,128.927 144.356 C 128.658 143.380,128.235 142.079,127.606 140.289 C 127.338 139.529,126.955 139.276,126.699 139.691 M177.400 139.975 C 177.300 140.238,177.218 140.603,177.218 140.785 C 177.218 141.150,176.956 142.001,176.157 144.242 C 175.389 146.396,175.303 146.439,171.872 146.416 C 167.733 146.388,167.608 146.595,170.581 148.553 C 173.713 150.616,173.871 151.039,172.752 154.392 C 171.289 158.777,171.386 158.809,175.892 155.426 C 177.892 153.925,178.084 153.923,179.832 155.374 C 180.854 156.223,183.489 157.983,183.738 157.983 C 184.227 157.983,183.852 156.413,182.611 153.261 C 181.776 151.140,182.300 150.376,186.330 147.829 C 188.114 146.702,187.639 146.412,184.002 146.408 C 182.444 146.407,181.028 146.351,180.854 146.284 C 180.506 146.151,179.584 144.234,179.272 142.994 C 178.539 140.087,177.806 138.906,177.400 139.975 M204.062 153.296 C 203.577 153.451,203.554 154.126,203.551 168.178 C 203.548 181.667,203.569 182.592,203.875 182.838 C 204.155 183.062,218.149 183.093,301.379 183.053 L 398.557 183.005 398.428 181.185 C 397.947 174.431,394.571 154.173,393.797 153.399 C 393.694 153.296,204.384 153.193,204.062 153.296 M50.460 161.018 C 50.354 161.146,50.136 161.755,49.976 162.372 C 49.624 163.728,48.808 166.085,48.454 166.771 C 47.966 167.715,47.096 167.944,44.553 167.799 C 40.706 167.580,40.706 168.013,44.549 170.718 C 46.708 172.238,46.894 172.841,45.938 175.227 C 45.630 175.997,45.378 176.722,45.378 176.839 C 45.378 176.956,45.205 177.431,44.994 177.895 C 44.596 178.768,44.574 179.284,44.929 179.402 C 45.127 179.468,45.530 179.183,48.671 176.755 C 50.850 175.071,51.290 175.197,55.413 178.675 C 56.951 179.972,57.294 179.599,56.489 177.501 C 56.232 176.832,55.812 175.736,55.556 175.066 C 54.702 172.842,54.905 172.223,56.960 170.784 C 60.874 168.041,60.888 167.580,57.050 167.798 C 53.383 168.006,52.994 167.618,51.615 162.372 C 51.326 161.272,51.074 160.784,50.794 160.784 C 50.716 160.784,50.566 160.889,50.460 161.018 M101.226 161.190 C 101.127 161.429,100.956 162.087,100.845 162.652 C 100.734 163.217,100.467 164.141,100.252 164.706 C 99.035 167.893,99.173 167.801,95.689 167.744 C 91.682 167.678,91.595 167.989,94.943 170.417 C 97.526 172.290,97.712 173.226,96.185 176.677 C 95.373 178.514,95.551 179.775,96.522 179.059 C 96.712 178.919,97.836 178.070,99.021 177.171 C 101.689 175.146,101.606 175.149,104.013 176.984 C 108.208 180.181,108.354 180.136,106.906 176.097 C 105.562 172.348,105.556 172.363,109.738 169.323 C 111.593 167.974,111.335 167.787,107.630 167.787 C 103.967 167.787,104.329 168.154,102.391 162.478 C 101.822 160.813,101.520 160.479,101.226 161.190 M151.980 161.644 C 151.771 162.116,151.444 163.064,151.254 163.750 C 150.172 167.655,149.749 167.990,146.161 167.790 C 142.592 167.592,142.402 167.960,145.098 169.856 C 148.170 172.016,148.450 172.564,147.644 174.833 C 146.034 179.368,146.260 179.844,149.026 177.742 C 152.696 174.953,152.299 174.973,155.451 177.407 C 158.600 179.837,159.016 179.802,158.072 177.180 C 156.470 172.731,156.517 172.321,158.826 170.682 C 162.562 168.028,162.548 167.603,158.730 167.776 C 154.996 167.945,154.774 167.776,153.773 163.980 C 152.831 160.409,152.638 160.157,151.980 161.644 M2.739 171.335 C 2.468 173.287,2.197 175.303,2.136 175.817 L 2.025 176.751 3.371 177.778 C 6.313 180.022,6.539 179.731,5.036 175.630 C 4.810 175.014,4.583 174.001,4.531 173.379 L 4.436 172.247 5.346 171.445 C 5.846 171.003,6.862 170.223,7.603 169.709 C 10.007 168.045,9.803 167.787,6.081 167.787 L 3.231 167.787 2.739 171.335 M24.846 183.147 C 24.739 183.532,24.651 183.973,24.650 184.127 C 24.650 184.281,24.333 185.329,23.947 186.455 C 22.961 189.332,22.922 189.356,19.020 189.356 C 15.011 189.356,15.011 189.351,19.141 192.335 C 21.291 193.888,21.381 194.729,19.815 198.653 C 18.713 201.416,19.173 201.449,22.649 198.855 C 25.592 196.658,25.207 196.644,28.412 199.066 C 31.826 201.645,31.978 201.591,30.802 198.210 C 29.313 193.927,29.276 194.074,32.413 191.759 C 35.496 189.484,35.493 189.475,31.557 189.356 C 29.864 189.304,28.367 189.191,28.231 189.103 C 27.900 188.889,26.750 186.340,26.593 185.473 C 26.393 184.369,25.567 182.446,25.292 182.446 C 25.154 182.446,24.953 182.761,24.846 183.147 M75.579 183.613 C 75.324 184.255,75.054 185.075,74.979 185.434 C 74.776 186.414,73.780 188.735,73.443 189.016 C 73.235 189.189,72.221 189.290,70.049 189.356 C 66.144 189.473,66.089 189.551,68.642 191.332 C 72.040 193.700,72.191 194.056,71.138 197.199 C 69.740 201.374,69.987 201.527,73.631 198.744 C 76.493 196.557,76.091 196.476,80.675 200.166 C 82.393 201.549,82.550 201.003,81.419 197.572 C 80.252 194.030,80.349 193.747,83.470 191.609 C 86.499 189.534,86.429 189.398,82.290 189.321 L 79.147 189.262 78.640 188.695 C 78.252 188.261,77.988 187.536,77.513 185.613 C 76.603 181.926,76.353 181.668,75.579 183.613 M126.515 183.077 C 126.362 183.443,126.237 183.849,126.236 183.981 C 126.235 184.285,125.021 187.902,124.751 188.408 C 124.364 189.131,123.819 189.259,120.730 189.356 C 116.922 189.475,116.905 189.514,119.792 191.587 C 123.118 193.974,123.193 194.204,121.862 197.852 C 120.507 201.564,120.557 201.769,122.455 200.275 C 125.437 197.927,126.520 197.199,127.030 197.199 C 127.565 197.199,130.371 199.071,131.920 200.461 C 133.378 201.770,133.468 201.217,132.317 198.039 C 130.848 193.984,130.823 194.082,133.865 191.897 C 137.369 189.380,137.364 189.356,133.337 189.356 C 129.493 189.356,129.583 189.419,128.491 185.950 C 127.336 182.285,127.031 181.842,126.515 183.077 M177.405 182.910 C 177.302 183.182,177.218 183.571,177.218 183.776 C 177.218 184.165,176.027 187.856,175.711 188.446 C 175.344 189.131,174.766 189.260,171.630 189.356 C 167.609 189.478,167.603 189.377,171.800 192.478 C 173.732 193.905,173.837 194.884,172.429 198.350 C 171.242 201.270,171.689 201.398,174.889 199.049 C 178.196 196.621,177.623 196.583,181.483 199.483 C 184.327 201.619,184.497 201.417,183.100 197.572 C 181.938 194.375,181.981 193.967,183.604 192.744 C 188.226 189.263,188.194 189.466,184.136 189.398 C 180.317 189.334,179.981 189.055,179.008 185.148 C 178.431 182.833,177.780 181.924,177.405 182.910 M288.702 214.763 C 228.156 214.830,138.723 214.897,89.963 214.912 L 1.307 214.939 1.308 215.546 C 1.312 219.926,3.923 237.499,5.539 244.024 L 5.643 244.444 200.000 244.444 L 394.357 244.444 394.651 243.142 C 395.851 237.828,397.208 229.728,397.936 223.529 C 398.221 221.107,398.878 214.281,398.796 214.604 C 398.791 214.625,349.248 214.696,288.702 214.763 M17.112 279.412 C 20.646 287.540,25.229 296.362,29.791 303.816 L 31.398 306.443 200.000 306.443 L 368.602 306.443 370.209 303.816 C 374.771 296.362,379.354 287.540,382.888 279.412 L 384.289 276.190 200.000 276.190 L 15.711 276.190 17.112 279.412 M60.037 341.883 C 69.395 351.130,78.154 358.292,89.114 365.656 L 92.980 368.254 200.000 368.254 L 307.020 368.254 310.886 365.656 C 321.846 358.292,330.605 351.130,339.963 341.883 L 344.258 337.639 200.000 337.639 L 55.742 337.639 60.037 341.883 " stroke="none" fill="#fbfafa" fill-rule="evenodd"></path><path id="path3" d="M177.354 8.730 C 177.192 8.910,176.961 9.477,176.841 9.991 C 176.292 12.337,175.278 15.040,174.747 15.571 L 174.204 16.114 171.100 16.012 C 167.979 15.909,167.271 15.992,167.082 16.486 C 166.923 16.900,167.361 17.608,168.033 18.020 C 168.879 18.540,171.807 20.681,172.316 21.152 C 172.930 21.720,172.846 22.515,171.878 25.303 C 170.618 28.932,170.577 29.108,170.915 29.445 C 171.285 29.815,171.760 29.659,172.880 28.800 C 178.114 24.787,177.695 24.834,181.620 27.826 C 184.757 30.218,185.649 29.868,184.483 26.704 C 184.275 26.139,183.911 25.083,183.674 24.358 C 183.437 23.632,183.153 22.869,183.041 22.661 C 182.570 21.780,184.780 19.663,188.020 17.893 C 188.731 17.505,188.979 16.723,188.532 16.277 C 188.260 16.005,187.797 15.974,184.791 16.031 C 180.684 16.108,180.944 16.249,180.048 13.442 C 178.497 8.581,178.106 7.897,177.354 8.730 M178.379 10.598 C 178.595 11.085,178.919 12.031,179.100 12.698 C 179.280 13.366,179.626 14.374,179.868 14.939 C 180.697 16.872,180.314 16.701,184.052 16.807 C 187.900 16.915,188.026 16.988,186.332 18.137 C 181.865 21.166,181.771 21.374,183.169 25.117 C 184.659 29.108,184.460 29.270,181.232 26.690 C 177.983 24.091,177.892 24.098,173.794 27.257 C 171.616 28.936,171.296 28.515,172.458 25.499 C 173.764 22.107,173.798 21.630,172.801 20.697 C 172.294 20.223,169.391 18.055,168.701 17.635 C 167.721 17.039,168.514 16.807,171.525 16.807 C 174.657 16.807,175.261 16.667,175.677 15.842 C 176.118 14.969,176.795 12.868,177.426 10.411 C 177.665 9.481,177.905 9.528,178.379 10.598 M128.781 13.782 C 128.554 14.149,129.312 15.962,129.894 16.447 C 130.133 16.646,131.024 16.737,133.393 16.807 C 136.939 16.911,137.212 17.026,135.913 17.867 C 131.397 20.791,130.836 21.592,131.750 23.810 C 132.003 24.426,132.212 25.000,132.212 25.086 C 132.212 25.171,132.465 25.871,132.773 26.640 C 133.675 28.894,133.375 29.106,131.519 27.529 C 130.130 26.349,128.071 24.963,127.393 24.752 C 126.825 24.575,125.234 25.376,123.905 26.508 C 120.698 29.240,120.269 29.265,121.273 26.661 C 122.715 22.919,122.893 22.353,122.785 21.859 C 122.575 20.906,118.838 17.939,118.210 18.226 C 117.891 18.372,118.101 18.584,119.803 19.840 C 122.544 21.863,122.506 21.444,120.460 27.077 C 119.573 29.520,120.386 30.250,122.279 28.713 C 122.692 28.378,123.546 27.684,124.179 27.171 C 126.080 25.627,127.015 25.290,127.977 25.800 C 128.632 26.147,131.115 28.004,131.987 28.798 C 133.781 30.431,134.521 29.210,133.426 26.424 C 132.159 23.198,131.871 21.967,132.266 21.467 C 132.639 20.993,135.524 18.867,136.660 18.228 C 137.962 17.496,138.329 16.776,137.670 16.243 C 137.291 15.936,136.955 15.915,133.994 16.010 L 130.734 16.116 130.197 15.541 C 129.902 15.225,129.582 14.693,129.486 14.360 C 129.311 13.747,128.973 13.471,128.781 13.782 M123.903 15.691 C 123.492 15.886,122.778 16.210,122.316 16.411 L 121.475 16.775 122.628 16.791 C 123.676 16.805,123.833 16.755,124.355 16.232 C 125.293 15.294,125.135 15.105,123.903 15.691 M203.175 44.829 C 203.175 55.495,203.237 60.861,203.361 60.784 C 203.483 60.709,203.548 55.149,203.548 44.714 C 203.548 34.201,203.484 28.758,203.361 28.758 C 203.238 28.758,203.175 34.240,203.175 44.829 M101.055 30.312 C 100.942 30.448,100.712 31.097,100.543 31.755 C 99.044 37.608,99.117 37.535,94.771 37.535 C 89.209 37.535,89.205 37.988,94.736 41.719 C 96.742 43.073,96.889 43.627,95.912 46.153 C 93.591 52.155,94.330 52.462,100.173 47.919 C 101.609 46.802,101.782 46.812,103.364 48.101 C 104.426 48.967,107.770 51.167,108.023 51.167 C 108.935 51.167,108.867 50.373,107.649 46.766 C 106.352 42.924,106.249 43.199,109.897 40.789 C 113.913 38.136,113.627 37.535,108.345 37.535 C 104.218 37.535,104.665 37.788,103.734 34.921 C 102.180 30.131,101.778 29.440,101.055 30.312 M151.940 30.486 C 151.795 30.717,151.448 31.620,151.169 32.493 C 150.889 33.366,150.394 34.837,150.069 35.761 L 149.477 37.442 145.728 37.535 C 141.497 37.640,141.166 37.732,141.648 38.665 C 141.916 39.183,143.683 40.558,144.830 41.140 C 147.706 42.600,147.732 42.882,145.641 49.785 C 145.028 51.811,146.729 51.318,150.253 48.449 C 152.232 46.838,152.728 46.776,154.084 47.969 C 155.465 49.185,158.519 51.167,159.011 51.167 C 159.701 51.167,159.777 50.495,159.236 49.186 C 158.985 48.581,158.722 47.834,158.651 47.526 C 158.580 47.218,158.317 46.447,158.066 45.813 C 157.568 44.556,157.477 43.374,157.843 42.918 C 158.166 42.516,159.995 41.195,160.773 40.801 C 161.665 40.350,163.399 38.673,163.399 38.261 C 163.399 37.645,162.767 37.535,159.242 37.535 C 155.132 37.535,155.222 37.582,154.616 35.099 C 153.534 30.662,152.714 29.249,151.940 30.486 M102.228 32.500 C 102.455 33.061,102.745 33.933,102.872 34.437 C 103.168 35.618,103.970 37.535,104.343 37.955 C 104.597 38.242,105.017 38.282,107.756 38.282 C 111.824 38.282,112.177 38.706,109.435 40.301 C 105.781 42.427,105.582 42.936,106.912 46.762 C 107.674 48.955,107.919 50.047,107.649 50.047 C 107.330 50.047,105.943 49.172,104.437 48.020 C 101.758 45.971,101.562 45.926,100.164 47.035 C 95.873 50.442,94.965 50.610,96.004 47.806 C 96.422 46.677,97.087 44.591,97.239 43.929 C 97.462 42.961,96.501 41.900,94.118 40.483 C 93.221 39.950,92.063 38.926,92.063 38.666 C 92.063 38.352,92.709 38.282,95.616 38.282 C 99.377 38.282,100.096 37.538,100.943 32.773 C 101.244 31.080,101.619 31.000,102.228 32.500 M153.272 32.785 C 153.506 33.497,153.870 34.814,154.081 35.710 C 154.671 38.217,154.785 38.282,158.628 38.282 C 162.821 38.282,163.036 38.655,159.926 40.534 C 157.904 41.755,156.863 42.725,156.863 43.386 C 156.863 44.007,157.525 46.441,157.977 47.484 C 159.320 50.579,158.181 50.469,154.065 47.106 C 152.638 45.939,152.397 45.988,149.716 47.993 C 146.394 50.476,146.137 50.328,147.280 46.592 C 147.531 45.770,147.828 44.799,147.940 44.433 C 148.357 43.074,147.542 41.974,145.011 40.480 C 141.927 38.660,142.136 38.282,146.226 38.282 C 147.848 38.282,149.318 38.227,149.491 38.161 C 149.868 38.016,150.773 36.068,151.164 34.561 C 151.562 33.023,152.345 31.330,152.618 31.417 C 152.745 31.457,153.039 32.072,153.272 32.785 M75.726 51.911 C 75.542 52.207,74.873 54.152,74.504 55.462 C 74.103 56.884,73.345 58.930,73.146 59.129 C 73.070 59.205,71.518 59.249,69.697 59.227 C 64.162 59.161,63.877 59.532,67.503 62.085 C 70.987 64.537,71.406 65.079,70.867 66.429 C 70.470 67.424,69.447 71.106,69.335 71.941 C 69.163 73.228,70.114 73.074,72.082 71.494 C 75.970 68.372,76.241 68.279,77.818 69.534 C 81.726 72.644,82.102 72.891,82.786 72.794 C 83.349 72.714,83.408 71.932,82.941 70.718 C 80.725 64.949,80.667 65.264,84.461 62.445 C 88.488 59.453,88.446 59.307,83.535 59.256 C 81.704 59.237,80.015 59.216,79.783 59.209 C 79.184 59.192,78.723 58.334,78.230 56.324 C 77.261 52.371,76.390 50.836,75.726 51.911 M177.136 52.334 C 176.999 52.668,176.829 53.235,176.759 53.595 C 176.420 55.331,175.118 58.835,174.735 59.040 C 174.476 59.178,173.205 59.241,171.063 59.222 C 166.683 59.182,165.765 59.634,167.616 60.919 C 172.793 64.513,173.211 65.100,172.288 67.475 C 171.900 68.474,171.631 69.251,170.887 71.524 C 170.226 73.542,171.551 73.219,175.108 70.495 C 177.605 68.582,177.733 68.512,178.245 68.769 C 178.715 69.006,180.911 70.598,182.256 71.677 C 184.658 73.604,185.505 72.841,184.398 69.748 C 182.798 65.275,182.788 65.214,183.520 64.555 C 184.839 63.368,185.626 62.740,186.835 61.912 C 190.233 59.585,189.839 59.147,184.408 59.215 C 182.602 59.237,181.051 59.180,180.962 59.086 C 180.752 58.867,179.647 56.006,179.646 55.680 C 179.645 55.298,178.706 52.621,178.408 52.148 C 178.015 51.524,177.434 51.610,177.136 52.334 M126.350 52.334 C 126.202 52.565,125.984 53.133,125.865 53.595 C 125.572 54.734,124.583 57.658,124.239 58.396 C 123.853 59.228,123.570 59.284,120.075 59.229 C 116.864 59.178,116.132 59.314,116.004 59.982 C 115.941 60.309,116.360 60.665,119.788 63.192 C 122.022 64.839,122.329 65.260,121.957 66.166 C 121.822 66.493,121.590 67.138,121.441 67.600 C 121.292 68.063,120.963 68.974,120.710 69.626 C 119.382 73.044,120.204 73.706,122.996 71.471 C 125.754 69.263,126.548 68.721,127.024 68.721 C 127.517 68.721,129.606 70.135,131.492 71.744 C 133.730 73.655,134.604 72.779,133.451 69.782 C 132.538 67.408,132.006 65.692,132.062 65.303 C 132.122 64.888,133.651 63.595,136.575 61.489 C 139.281 59.540,138.757 59.127,133.707 59.228 C 129.758 59.306,129.716 59.262,128.172 53.419 C 127.759 51.854,126.962 51.379,126.350 52.334 M77.214 55.141 C 78.578 60.283,78.160 59.944,83.123 59.944 C 86.884 59.944,86.884 59.942,83.578 62.278 C 80.188 64.674,80.100 64.984,81.675 68.973 C 82.791 71.800,82.463 72.336,80.542 70.822 C 76.021 67.257,76.462 67.353,73.763 69.353 C 73.198 69.771,72.367 70.431,71.916 70.818 C 70.082 72.393,69.904 71.464,71.268 67.436 C 72.169 64.774,71.920 64.279,68.520 61.977 C 65.594 59.996,65.625 59.944,69.738 59.944 C 73.725 59.944,74.093 59.684,74.906 56.303 C 75.106 55.470,75.726 53.740,76.023 53.185 C 76.352 52.570,76.672 53.096,77.214 55.141 M127.485 53.610 C 127.606 53.858,128.057 55.179,128.488 56.546 C 129.586 60.029,129.452 59.944,133.826 59.944 C 137.665 59.944,137.663 59.934,134.284 62.359 C 130.787 64.871,130.863 64.631,132.302 68.627 C 133.241 71.234,133.336 71.553,133.224 71.735 C 133.016 72.071,132.557 71.866,131.593 71.008 C 127.362 67.247,127.257 67.241,123.101 70.549 C 120.797 72.382,120.398 72.259,121.271 69.985 C 123.347 64.581,123.423 64.924,119.535 62.151 C 116.358 59.885,116.338 59.944,120.278 59.944 C 123.461 59.944,124.339 59.765,124.730 59.035 C 125.009 58.514,126.237 54.879,126.237 54.575 C 126.237 53.410,127.072 52.764,127.485 53.610 M178.379 53.922 C 178.595 54.409,178.919 55.355,179.100 56.022 C 180.134 59.846,180.247 59.929,184.454 59.937 C 188.043 59.945,188.280 60.044,186.975 60.996 C 181.529 64.967,181.728 64.553,183.266 68.720 C 184.216 71.295,184.289 71.709,183.795 71.709 C 183.439 71.709,183.312 71.623,180.386 69.421 C 177.874 67.530,177.886 67.530,175.275 69.514 C 171.560 72.339,171.196 72.355,172.193 69.655 C 174.013 64.726,174.018 64.740,169.978 61.840 C 167.374 59.971,167.368 59.980,171.416 59.909 C 175.448 59.839,175.534 59.801,176.224 57.791 C 177.091 55.270,177.218 54.839,177.218 54.418 C 177.218 52.967,177.838 52.702,178.379 53.922 M101.063 73.666 C 100.855 73.931,100.628 74.502,100.558 74.935 C 100.292 76.587,99.139 79.629,98.577 80.159 L 98.033 80.672 94.688 80.672 C 91.190 80.672,90.557 80.817,90.839 81.552 C 90.896 81.701,90.943 81.894,90.943 81.979 C 90.943 82.065,92.056 82.951,93.417 83.948 C 96.943 86.531,96.946 86.537,96.003 89.038 C 94.278 93.611,94.130 94.716,95.283 94.426 C 95.696 94.323,96.358 93.856,100.140 91.006 C 101.632 89.881,101.699 89.899,104.814 92.250 C 109.114 95.497,109.548 95.025,107.475 89.356 C 106.455 86.566,106.457 86.741,107.423 85.843 C 107.886 85.413,109.159 84.430,110.253 83.660 C 113.698 81.233,113.438 80.785,108.549 80.715 C 104.172 80.653,104.664 81.092,102.875 75.652 C 102.122 73.361,101.682 72.879,101.063 73.666 M152.154 73.456 C 151.887 73.723,151.207 75.503,150.610 77.498 C 150.441 78.063,150.077 78.987,149.801 79.552 L 149.300 80.579 145.604 80.672 C 140.446 80.803,140.265 81.206,144.164 83.874 C 147.454 86.125,147.604 86.360,146.996 88.297 C 144.910 94.947,144.986 95.465,147.744 93.396 C 152.726 89.658,152.490 89.746,154.066 91.029 C 160.050 95.900,160.576 95.665,158.156 89.204 C 157.201 86.653,157.296 86.400,159.901 84.573 C 162.225 82.943,163.212 82.031,163.212 81.512 C 163.212 80.733,162.932 80.672,159.338 80.672 C 155.366 80.672,155.250 80.625,154.742 78.777 C 154.590 78.228,154.247 76.979,153.978 76.004 C 153.333 73.659,152.756 72.854,152.154 73.456 M50.029 73.984 C 49.909 74.208,49.702 74.817,49.569 75.337 C 49.065 77.316,48.138 79.664,47.666 80.159 L 47.176 80.672 43.793 80.672 C 40.242 80.672,39.963 80.734,39.963 81.515 C 39.963 81.961,40.521 82.519,42.017 83.571 C 45.653 86.127,45.937 86.426,45.694 87.445 C 45.567 87.980,45.079 89.402,44.495 90.943 C 43.185 94.397,43.825 95.197,46.337 93.245 C 49.321 90.925,50.369 90.204,50.762 90.200 C 51.219 90.196,53.777 91.940,55.366 93.340 C 57.819 95.501,58.299 94.526,56.847 90.334 C 55.428 86.238,55.342 86.583,58.312 84.483 C 61.056 82.544,61.625 82.034,61.625 81.515 C 61.625 80.733,61.346 80.672,57.785 80.672 L 54.393 80.672 53.909 80.189 C 53.432 79.711,52.767 78.028,52.094 75.590 C 51.523 73.523,50.642 72.838,50.029 73.984 M102.160 75.566 C 102.356 76.022,102.641 76.880,102.795 77.473 C 103.765 81.218,104.144 81.524,107.732 81.462 C 111.465 81.397,111.969 81.758,109.936 83.041 C 108.587 83.893,106.301 85.700,106.182 86.010 C 105.961 86.587,106.074 87.770,106.427 88.557 C 107.236 90.362,107.846 92.477,107.681 92.907 C 107.526 93.310,107.048 93.040,104.403 91.052 C 101.816 89.108,101.543 89.059,99.954 90.262 C 94.859 94.116,94.891 94.132,96.733 88.737 C 97.591 86.223,97.506 86.062,93.931 83.411 C 91.543 81.641,91.994 81.192,95.865 81.487 C 98.383 81.679,99.508 81.157,99.829 79.649 C 99.895 79.339,100.140 78.623,100.374 78.058 C 100.607 77.493,100.860 76.653,100.936 76.190 C 101.246 74.302,101.552 74.146,102.160 75.566 M152.914 74.837 C 153.010 75.016,153.398 76.340,153.777 77.778 C 154.750 81.467,155.047 81.697,158.561 81.486 C 162.788 81.231,162.881 81.687,159.120 84.220 C 156.519 85.972,156.372 86.859,158.036 90.756 C 159.319 93.763,158.160 93.566,153.981 90.064 C 152.738 89.022,152.238 89.144,149.600 91.130 C 147.391 92.793,146.859 93.051,146.669 92.555 C 146.545 92.231,147.249 89.450,147.752 88.280 C 148.505 86.525,147.958 85.605,144.925 83.525 C 142.146 81.619,142.311 81.391,146.422 81.462 C 150.028 81.525,150.044 81.510,151.415 77.124 C 152.188 74.649,152.535 74.120,152.914 74.837 M51.123 74.930 C 51.227 75.058,51.483 75.752,51.692 76.471 C 53.158 81.521,53.274 81.631,56.928 81.478 C 60.973 81.309,61.105 81.604,57.981 83.832 C 55.031 85.937,54.554 86.753,55.363 88.317 C 55.513 88.608,55.939 89.749,56.307 90.852 C 57.240 93.638,57.062 93.959,55.402 92.484 C 51.054 88.618,51.092 88.618,46.149 92.495 C 44.266 93.972,44.262 92.975,46.134 88.481 C 46.947 86.529,46.650 85.983,43.597 83.826 C 40.479 81.623,40.617 81.309,44.631 81.477 C 48.261 81.629,48.732 81.153,50.054 76.004 C 50.271 75.158,50.532 74.697,50.794 74.697 C 50.871 74.697,51.020 74.802,51.123 74.930 M203.175 106.536 C 203.175 117.056,203.238 122.502,203.361 122.502 C 203.484 122.502,203.548 117.056,203.548 106.536 C 203.548 96.016,203.484 90.570,203.361 90.570 C 203.238 90.570,203.175 96.016,203.175 106.536 M75.780 95.191 C 75.512 95.502,75.239 96.244,74.044 99.907 C 73.186 102.540,73.558 102.334,69.638 102.334 C 64.273 102.334,64.092 102.879,68.459 105.895 C 71.388 107.918,71.412 107.963,70.684 110.170 C 69.250 114.522,69.034 115.805,69.714 115.934 C 70.089 116.005,70.605 115.674,73.657 113.399 C 76.064 111.604,76.460 111.512,77.604 112.477 C 78.614 113.330,81.790 115.669,82.318 115.950 C 83.681 116.673,83.545 115.170,81.846 110.706 C 80.883 108.176,80.954 108.021,84.047 105.890 C 88.243 102.999,88.019 102.334,82.849 102.334 L 79.585 102.334 79.132 101.796 C 78.830 101.437,78.504 100.551,78.155 99.135 C 77.176 95.166,76.611 94.228,75.780 95.191 M177.331 95.151 C 177.053 95.429,176.667 96.539,176.652 97.106 C 176.633 97.818,175.144 101.707,174.776 102.007 C 174.429 102.291,173.944 102.334,171.148 102.334 C 166.087 102.334,165.926 102.771,169.900 105.727 C 173.066 108.081,173.212 108.336,172.437 110.137 C 171.783 111.654,170.707 115.256,170.817 115.555 C 171.140 116.431,171.492 116.279,174.789 113.832 C 178.083 111.388,177.799 111.398,180.766 113.632 C 185.309 117.053,185.840 116.655,183.865 111.312 C 182.599 107.890,182.502 108.098,186.780 105.078 C 189.860 102.905,189.408 102.334,184.609 102.334 C 180.407 102.334,180.844 102.742,179.202 97.292 C 178.514 95.007,178.030 94.453,177.331 95.151 M126.374 95.378 C 126.211 95.558,125.954 96.209,125.802 96.825 C 124.466 102.239,124.318 102.387,120.272 102.348 C 115.343 102.302,114.989 102.894,118.487 105.335 C 122.017 107.798,122.390 108.257,121.872 109.497 C 119.451 115.290,119.635 117.113,122.423 114.975 C 123.134 114.430,124.340 113.506,125.102 112.921 C 125.991 112.239,126.667 111.858,126.987 111.858 C 127.517 111.858,130.268 113.705,131.906 115.161 C 134.147 117.151,134.514 115.855,132.948 111.485 C 132.525 110.303,132.135 109.191,132.081 109.013 C 131.842 108.216,132.221 107.766,134.501 106.144 C 139.241 102.771,139.160 102.295,133.853 102.348 L 130.646 102.381 130.129 101.802 C 129.844 101.483,129.477 100.737,129.312 100.144 C 129.148 99.551,128.861 98.688,128.675 98.226 C 128.489 97.764,128.278 97.049,128.207 96.639 C 127.954 95.187,127.085 94.590,126.374 95.378 M76.707 96.431 C 76.819 96.676,77.179 97.957,77.508 99.278 C 78.494 103.245,78.404 103.169,82.166 103.190 C 85.598 103.209,85.528 103.200,85.528 103.622 C 85.528 103.860,84.833 104.466,83.396 105.482 C 80.249 107.705,80.206 107.835,81.419 111.346 C 82.205 113.618,82.357 114.659,81.902 114.659 C 81.616 114.659,79.027 112.798,77.705 111.642 C 76.443 110.538,76.142 110.612,73.391 112.701 C 70.897 114.595,70.399 114.804,70.405 113.959 C 70.408 113.366,70.959 111.295,71.509 109.804 C 72.231 107.845,71.990 107.501,67.825 104.566 C 66.100 103.350,66.387 103.175,70.108 103.175 C 73.941 103.175,73.533 103.575,75.346 98.039 C 76.048 95.897,76.318 95.577,76.707 96.431 M178.605 97.548 C 178.869 98.253,179.085 98.951,179.085 99.098 C 179.085 99.580,180.258 102.419,180.615 102.801 C 180.935 103.144,181.204 103.175,183.936 103.175 C 186.188 103.175,186.968 103.236,187.152 103.427 C 187.426 103.711,187.483 103.658,184.500 105.889 C 181.880 107.848,181.866 107.903,183.100 111.298 C 184.528 115.227,184.318 115.415,181.161 113.025 C 177.849 110.517,177.893 110.529,176.407 111.718 C 171.663 115.514,171.246 115.433,172.773 111.018 C 173.873 107.833,173.870 107.822,171.105 105.743 C 167.811 103.267,167.818 103.151,171.255 103.230 C 175.456 103.326,176.255 102.552,177.222 97.456 C 177.574 95.600,177.883 95.621,178.605 97.548 M127.615 96.920 C 129.300 103.137,129.552 103.407,133.469 103.198 C 137.171 103.000,137.293 103.330,134.290 105.412 C 131.046 107.660,130.872 107.980,131.719 110.146 C 133.146 113.800,133.388 114.846,132.805 114.846 C 132.594 114.846,132.370 114.762,132.307 114.660 C 132.153 114.411,128.278 111.404,127.739 111.115 C 127.038 110.740,126.305 111.036,124.633 112.369 C 120.716 115.490,120.191 115.575,121.409 112.885 C 121.595 112.474,121.750 111.970,121.753 111.765 C 121.756 111.559,121.965 110.971,122.218 110.458 C 123.267 108.326,122.962 107.651,120.001 105.551 C 116.766 103.257,116.795 103.175,120.833 103.175 C 123.778 103.175,123.804 103.171,124.285 102.690 C 124.723 102.253,126.237 98.388,126.237 97.709 C 126.237 96.381,127.303 95.771,127.615 96.920 M27.221 100.481 C 27.043 100.791,26.965 101.003,27.048 100.952 C 27.130 100.901,27.345 101.271,27.526 101.773 C 28.028 103.170,28.040 103.175,31.480 103.175 C 35.172 103.175,35.504 103.367,33.802 104.525 C 29.444 107.489,29.316 107.764,30.619 111.389 C 31.950 115.093,31.751 115.429,29.335 113.567 C 25.418 110.548,25.331 110.512,24.236 111.450 C 23.899 111.738,22.732 112.623,21.643 113.416 C 19.939 114.656,19.021 115.629,19.297 115.904 C 19.363 115.971,21.510 114.434,24.074 112.485 C 25.221 111.612,25.634 111.669,27.313 112.932 C 31.695 116.226,31.980 116.377,32.282 115.560 C 32.502 114.965,32.225 113.745,31.259 111.060 C 30.100 107.839,29.921 108.209,34.058 105.273 C 37.390 102.909,36.981 102.334,31.968 102.334 C 28.208 102.334,28.387 102.398,27.868 100.870 L 27.544 99.918 27.221 100.481 M100.959 116.947 C 100.814 117.178,100.590 117.829,100.461 118.394 C 100.166 119.688,99.216 122.598,98.873 123.262 C 98.496 123.992,98.264 124.034,94.799 124.005 C 92.220 123.982,91.572 124.031,91.205 124.271 C 90.549 124.701,90.609 125.426,91.333 125.826 C 93.144 126.824,96.123 129.101,96.393 129.692 C 96.640 130.234,96.405 131.215,95.252 134.454 C 93.859 138.370,94.338 138.547,98.315 135.583 C 101.791 132.993,101.575 133.011,104.295 135.104 C 109.004 138.728,109.507 138.387,107.584 132.874 C 106.547 129.897,106.540 129.570,107.499 128.944 C 107.791 128.753,108.509 128.200,109.094 127.714 C 109.679 127.227,110.668 126.558,111.292 126.225 C 112.547 125.556,112.895 124.953,112.343 124.401 C 112.077 124.135,111.512 124.084,108.464 124.054 C 106.501 124.034,104.821 123.944,104.731 123.853 C 104.512 123.635,103.727 121.486,103.158 119.548 C 102.327 116.718,101.624 115.886,100.959 116.947 M151.941 116.919 C 151.790 117.135,151.442 118.038,151.168 118.926 C 150.894 119.815,150.467 121.068,150.218 121.712 C 149.970 122.356,149.764 122.987,149.761 123.113 C 149.738 123.976,149.389 124.056,145.835 124.014 C 142.982 123.980,142.381 124.021,141.990 124.277 C 141.201 124.794,141.450 125.462,142.690 126.158 C 144.910 127.403,147.339 129.426,147.339 130.029 C 147.339 130.224,147.129 131.090,146.872 131.952 C 146.615 132.814,146.190 134.241,145.927 135.123 C 144.931 138.465,145.448 138.440,150.016 134.931 C 151.420 133.853,151.994 133.520,152.449 133.520 C 153.074 133.520,153.149 133.566,155.952 135.682 C 158.344 137.488,158.566 137.628,159.039 137.628 C 159.853 137.628,159.672 136.660,157.994 132.026 C 157.527 130.736,157.505 129.730,157.937 129.297 C 158.467 128.766,161.557 126.526,162.424 126.045 C 163.424 125.491,163.651 124.839,163.023 124.331 C 162.634 124.015,162.263 123.984,159.252 124.010 C 155.004 124.047,155.264 124.234,154.346 120.463 C 153.505 117.004,152.706 115.827,151.941 116.919 M50.060 117.205 C 49.847 117.476,49.673 117.813,49.673 117.955 C 49.673 118.321,48.257 122.558,47.911 123.227 C 47.477 124.065,47.392 124.083,44.071 124.024 C 40.818 123.966,40.079 124.091,39.913 124.727 C 39.801 125.153,40.397 126.050,40.793 126.050 C 41.037 126.050,44.551 128.544,45.331 129.272 C 45.926 129.827,45.868 130.283,44.817 133.320 C 43.065 138.383,43.470 138.701,47.591 135.497 C 50.833 132.978,50.727 132.982,53.666 135.242 C 56.672 137.553,56.816 137.649,57.229 137.590 C 57.926 137.490,57.810 136.411,56.780 133.382 C 55.685 130.165,55.652 129.836,56.349 129.201 C 57.233 128.396,60.191 126.288,60.930 125.937 C 61.758 125.544,62.026 124.878,61.548 124.401 C 61.280 124.133,60.747 124.088,57.764 124.081 L 54.292 124.072 53.851 123.521 C 53.608 123.217,53.332 122.717,53.237 122.409 C 51.382 116.350,51.099 115.885,50.060 117.205 M51.121 118.067 C 51.224 118.196,51.367 118.511,51.438 118.768 C 53.141 124.885,53.094 124.834,56.971 124.846 C 59.842 124.854,60.835 125.040,60.205 125.451 C 55.063 128.806,54.562 129.525,55.556 132.116 C 55.812 132.785,56.232 133.881,56.489 134.551 C 57.252 136.539,56.956 137.108,55.751 135.971 C 51.933 132.369,50.618 132.046,48.158 134.106 C 43.958 137.624,43.928 137.584,46.200 131.559 C 46.932 129.620,46.664 129.191,43.193 126.745 C 40.510 124.854,40.521 124.839,44.492 124.916 C 46.970 124.964,47.824 124.766,48.328 124.030 C 48.678 123.519,50.050 119.466,50.048 118.949 C 50.045 118.239,50.777 117.637,51.121 118.067 M102.042 118.371 C 102.195 118.667,102.487 119.509,102.690 120.242 C 103.923 124.692,104.240 124.999,107.532 124.924 C 111.625 124.831,111.856 124.944,110.037 126.148 C 105.774 128.969,105.558 129.451,106.909 133.126 C 108.306 136.924,108.054 137.134,105.012 134.705 C 101.704 132.063,101.819 132.066,98.481 134.547 C 97.169 135.523,95.976 136.321,95.830 136.321 C 95.456 136.321,95.677 134.780,96.238 133.486 C 97.784 129.915,97.657 129.433,94.562 127.139 C 93.291 126.197,92.250 125.315,92.250 125.178 C 92.250 124.905,92.245 124.906,95.924 124.864 C 99.299 124.826,99.928 124.144,100.857 119.515 C 101.209 117.760,101.554 117.427,102.042 118.371 M152.911 118.078 C 153.023 118.212,153.418 119.536,153.791 121.019 C 154.349 123.246,154.563 123.814,155.015 124.276 L 155.563 124.837 158.127 124.863 C 161.928 124.901,161.905 124.899,161.905 125.198 C 161.905 125.345,161.567 125.703,161.153 125.992 C 156.130 129.505,156.269 129.135,158.067 134.174 C 159.091 137.044,158.269 136.891,154.274 133.472 C 152.782 132.195,152.052 132.353,149.276 134.553 C 146.287 136.922,146.035 136.634,147.445 132.464 C 148.531 129.252,148.547 129.279,143.261 125.568 C 142.497 125.031,143.073 124.899,146.307 124.867 C 150.151 124.830,149.924 125.046,151.531 119.897 C 152.158 117.889,152.443 117.513,152.911 118.078 M24.849 138.363 C 24.655 138.557,24.398 139.191,24.277 139.772 C 24.075 140.747,23.579 142.326,22.854 144.308 C 22.387 145.584,21.998 145.696,18.290 145.625 C 13.518 145.534,13.271 146.148,17.032 148.744 C 20.920 151.427,20.794 150.980,19.059 155.929 C 17.872 159.314,18.366 159.974,20.728 158.162 C 21.088 157.886,21.647 157.525,21.971 157.360 C 22.295 157.194,23.086 156.636,23.729 156.120 C 25.194 154.944,25.568 154.931,26.953 156.006 C 32.294 160.153,33.219 159.884,31.385 154.715 C 30.083 151.044,30.044 151.132,34.194 148.400 C 37.579 146.172,37.135 145.544,32.233 145.627 L 28.807 145.686 28.440 145.219 C 28.238 144.963,27.669 143.507,27.176 141.984 C 25.904 138.060,25.610 137.602,24.849 138.363 M75.751 138.411 C 75.600 138.648,75.203 139.683,74.871 140.710 C 73.128 146.090,73.571 145.707,69.190 145.626 C 64.349 145.537,64.022 146.177,67.675 148.590 C 71.107 150.856,71.364 151.218,70.798 152.986 C 69.035 158.490,68.973 159.175,70.271 158.849 C 70.754 158.728,73.382 157.008,74.768 155.907 C 76.049 154.888,76.584 154.924,77.949 156.118 C 78.537 156.632,79.277 157.188,79.594 157.351 C 79.910 157.515,80.489 157.881,80.880 158.164 C 82.925 159.645,83.785 159.193,82.933 157.084 C 82.107 155.039,81.231 151.984,81.343 151.539 C 81.492 150.946,82.186 150.346,84.550 148.768 C 88.356 146.228,88.087 145.548,83.309 145.630 C 78.915 145.704,79.062 145.806,78.074 142.017 C 77.159 138.508,76.421 137.363,75.751 138.411 M177.216 138.609 C 177.012 138.943,176.845 139.366,176.845 139.550 C 176.843 140.525,175.302 144.652,174.747 145.169 L 174.170 145.706 171.259 145.617 C 165.974 145.456,165.669 146.163,169.830 148.935 C 173.197 151.177,173.188 151.149,171.802 155.220 C 170.249 159.783,170.517 159.992,174.509 157.334 C 175.642 156.579,176.729 155.786,176.923 155.572 C 177.515 154.917,178.290 155.065,179.555 156.073 C 184.698 160.173,185.680 159.868,183.912 154.720 C 182.653 151.056,182.732 150.878,186.667 148.453 C 188.223 147.495,188.609 147.087,188.609 146.403 C 188.609 145.631,188.024 145.518,184.500 145.611 C 180.673 145.712,181.004 145.953,179.722 142.127 C 178.237 137.698,177.986 137.345,177.216 138.609 M126.440 138.587 C 126.236 138.807,126.015 139.248,125.949 139.568 C 125.577 141.380,124.305 144.717,123.803 145.197 L 123.267 145.711 120.218 145.619 C 115.403 145.473,114.825 146.252,118.157 148.396 C 122.551 151.223,122.432 150.954,121.077 155.004 C 119.391 160.044,119.850 160.173,125.235 156.172 C 126.918 154.921,127.171 154.923,128.868 156.209 C 129.614 156.774,130.283 157.236,130.356 157.236 C 130.428 157.236,130.979 157.618,131.581 158.085 C 133.618 159.667,134.455 158.859,133.464 156.267 C 131.571 151.317,131.576 151.285,134.588 149.298 C 135.490 148.703,136.531 148.016,136.901 147.771 C 137.726 147.225,138.084 146.535,137.809 146.021 C 137.576 145.585,137.574 145.585,133.756 145.651 L 130.725 145.704 130.208 145.146 C 129.742 144.642,128.096 140.110,128.103 139.347 C 128.109 138.542,126.969 138.020,126.440 138.587 M77.037 140.760 C 77.205 141.336,77.540 142.610,77.783 143.592 C 78.459 146.324,78.587 146.405,82.227 146.405 C 86.170 146.405,86.669 146.931,84.012 148.283 C 80.607 150.015,80.212 150.897,81.311 154.307 C 82.311 157.406,82.397 157.901,81.934 157.864 C 81.545 157.833,79.323 156.338,78.042 155.244 C 76.490 153.920,75.998 153.946,74.139 155.447 C 70.131 158.684,69.694 158.371,71.372 153.461 C 72.181 151.095,71.542 149.898,68.649 148.355 C 65.780 146.826,66.135 146.405,70.294 146.405 C 72.784 146.405,73.183 146.363,73.444 146.075 C 73.838 145.639,74.804 143.324,74.963 142.434 C 75.032 142.048,75.337 141.177,75.641 140.499 C 76.295 139.042,76.552 139.090,77.037 140.760 M25.918 140.383 C 26.127 140.871,26.431 141.782,26.592 142.409 C 26.935 143.737,27.730 145.610,28.150 146.078 C 28.404 146.363,28.814 146.405,31.293 146.405 C 35.269 146.405,35.811 146.886,33.277 148.167 C 32.303 148.660,30.147 150.465,29.909 150.989 C 29.595 151.678,29.603 151.721,30.629 154.745 C 31.500 157.309,31.625 157.983,31.229 157.983 C 30.982 157.983,28.129 156.050,27.118 155.198 C 25.680 153.985,25.219 154.000,23.521 155.309 C 21.208 157.093,19.617 158.067,19.390 157.840 C 19.248 157.698,19.475 156.760,20.173 154.608 L 21.155 151.576 20.803 150.922 C 20.468 150.300,19.328 149.363,17.288 148.032 C 15.233 146.692,15.593 146.412,19.371 146.408 L 22.216 146.405 22.759 145.892 C 23.390 145.295,24.024 143.580,24.864 140.196 C 25.099 139.251,25.460 139.315,25.918 140.383 M127.606 140.289 C 128.235 142.079,128.658 143.380,128.927 144.356 C 129.108 145.015,129.420 145.588,129.788 145.941 L 130.364 146.493 133.109 146.439 C 136.992 146.363,137.441 146.755,135.039 148.122 C 131.046 150.395,130.815 150.985,132.312 155.089 C 133.313 157.831,133.344 159.028,132.386 157.874 C 132.251 157.711,131.370 157.041,130.429 156.384 C 129.488 155.728,128.616 155.068,128.490 154.916 C 127.641 153.894,126.734 154.093,124.480 155.798 C 120.371 158.907,120.421 158.918,121.751 155.182 C 122.725 152.450,122.851 151.961,122.737 151.363 C 122.622 150.765,120.732 149.043,119.427 148.347 C 116.590 146.835,116.979 146.356,120.978 146.433 C 124.614 146.503,124.488 146.606,125.777 142.461 C 126.840 139.044,127.071 138.769,127.606 140.289 M178.593 140.850 C 178.857 141.594,179.162 142.559,179.272 142.994 C 179.584 144.234,180.506 146.151,180.854 146.284 C 181.028 146.351,182.444 146.407,184.002 146.408 C 187.639 146.412,188.114 146.702,186.330 147.829 C 182.300 150.376,181.776 151.140,182.611 153.261 C 183.852 156.413,184.227 157.983,183.738 157.983 C 183.489 157.983,180.854 156.223,179.832 155.374 C 178.084 153.923,177.892 153.925,175.892 155.426 C 171.386 158.809,171.289 158.777,172.752 154.392 C 173.871 151.039,173.713 150.616,170.581 148.553 C 167.608 146.595,167.733 146.388,171.872 146.416 C 175.303 146.439,175.389 146.396,176.157 144.242 C 176.956 142.001,177.218 141.150,177.218 140.785 C 177.218 139.143,178.001 139.180,178.593 140.850 M203.138 153.356 C 202.987 155.984,203.194 184.137,203.364 184.032 C 203.610 183.880,203.618 152.633,203.371 152.480 C 203.271 152.418,203.170 152.797,203.138 153.356 M100.957 159.897 C 100.810 160.128,100.596 160.780,100.480 161.345 C 100.133 163.029,99.129 165.841,98.694 166.347 L 98.287 166.820 94.787 166.837 C 89.469 166.862,89.420 167.242,94.273 170.868 C 96.961 172.876,96.925 172.671,95.353 177.124 C 93.869 181.326,94.509 181.535,98.856 178.266 C 101.776 176.070,101.597 176.077,104.187 178.063 C 108.896 181.674,109.514 181.277,107.592 175.882 C 106.397 172.530,106.197 172.931,110.756 169.540 C 112.167 168.490,112.418 168.180,112.418 167.487 C 112.418 166.865,111.596 166.729,108.167 166.784 C 104.199 166.847,104.551 167.113,103.338 163.119 C 102.218 159.430,101.698 158.726,100.957 159.897 M151.943 159.886 C 151.792 160.123,151.441 161.032,151.162 161.905 C 149.420 167.359,149.946 166.861,146.002 166.790 C 142.508 166.726,141.737 166.857,141.737 167.515 C 141.737 168.240,142.126 168.640,144.638 170.500 C 147.569 172.670,147.573 172.676,146.910 174.840 C 144.791 181.758,144.917 181.884,150.057 177.965 C 152.321 176.239,152.685 176.154,153.795 177.090 C 159.163 181.620,160.256 181.625,158.717 177.112 C 157.171 172.578,157.095 172.910,160.204 170.618 C 164.669 167.324,164.475 166.685,159.042 166.792 L 155.900 166.853 155.384 166.277 C 154.989 165.836,154.734 165.154,154.302 163.382 C 153.423 159.777,152.697 158.701,151.943 159.886 M49.989 160.166 C 49.843 160.455,49.668 160.994,49.602 161.363 C 49.355 162.727,48.008 166.105,47.554 166.500 C 47.122 166.874,46.953 166.889,43.952 166.803 C 38.834 166.658,38.610 167.298,42.720 170.326 C 46.308 172.969,46.165 172.528,44.750 176.564 C 43.358 180.536,43.791 181.496,46.149 179.665 C 50.306 176.435,50.611 176.260,51.375 176.669 C 51.978 176.992,54.466 178.831,55.417 179.658 C 57.762 181.696,58.230 180.381,56.685 176.097 C 55.425 172.605,55.276 173.003,58.847 170.348 C 61.354 168.485,61.625 168.206,61.625 167.487 C 61.625 166.862,60.806 166.725,57.485 166.791 C 53.582 166.869,53.762 166.991,52.662 163.522 C 51.395 159.524,51.510 159.765,50.844 159.700 C 50.357 159.652,50.208 159.733,49.989 160.166 M51.128 161.018 C 51.234 161.146,51.453 161.755,51.615 162.372 C 52.994 167.618,53.383 168.006,57.050 167.798 C 60.888 167.580,60.874 168.041,56.960 170.784 C 54.905 172.223,54.702 172.842,55.556 175.066 C 55.812 175.736,56.232 176.832,56.489 177.501 C 57.294 179.599,56.951 179.972,55.413 178.675 C 51.290 175.197,50.850 175.071,48.671 176.755 C 45.530 179.183,45.127 179.468,44.929 179.402 C 44.574 179.284,44.596 178.768,44.994 177.895 C 45.205 177.431,45.378 176.956,45.378 176.839 C 45.378 176.722,45.630 175.997,45.938 175.227 C 46.894 172.841,46.708 172.238,44.549 170.718 C 40.706 168.013,40.706 167.580,44.553 167.799 C 47.096 167.944,47.966 167.715,48.454 166.771 C 48.808 166.085,49.624 163.728,49.976 162.372 C 50.261 161.273,50.513 160.784,50.794 160.784 C 50.871 160.784,51.021 160.889,51.128 161.018 M102.391 162.478 C 104.329 168.154,103.967 167.787,107.630 167.787 C 111.335 167.787,111.593 167.974,109.738 169.323 C 105.556 172.363,105.562 172.348,106.906 176.097 C 108.354 180.136,108.208 180.181,104.013 176.984 C 101.606 175.149,101.689 175.146,99.021 177.171 C 97.836 178.070,96.712 178.919,96.522 179.059 C 95.551 179.775,95.373 178.514,96.185 176.677 C 97.712 173.226,97.526 172.290,94.943 170.417 C 91.595 167.989,91.682 167.678,95.689 167.744 C 99.173 167.801,99.035 167.893,100.252 164.706 C 100.467 164.141,100.734 163.217,100.845 162.652 C 101.306 160.298,101.634 160.261,102.391 162.478 M152.928 161.132 C 153.030 161.324,153.410 162.605,153.773 163.980 C 154.774 167.776,154.996 167.945,158.730 167.776 C 162.548 167.603,162.562 168.028,158.826 170.682 C 156.517 172.321,156.470 172.731,158.072 177.180 C 159.016 179.802,158.600 179.837,155.451 177.407 C 152.299 174.973,152.696 174.953,149.026 177.742 C 146.260 179.844,146.034 179.368,147.644 174.833 C 148.450 172.564,148.170 172.016,145.098 169.856 C 142.402 167.960,142.592 167.592,146.161 167.790 C 149.749 167.990,150.172 167.655,151.254 163.750 C 151.949 161.243,152.514 160.359,152.928 161.132 M3.362 167.270 C 3.361 167.832,3.735 167.899,6.565 167.838 C 9.755 167.769,9.936 168.095,7.603 169.709 C 6.862 170.223,5.846 171.003,5.346 171.445 L 4.436 172.247 4.531 173.379 C 4.583 174.001,4.810 175.014,5.036 175.630 C 6.530 179.707,6.293 180.033,3.440 177.818 C 2.388 177.002,2.141 176.882,2.008 177.120 C 1.787 177.515,1.841 177.575,3.591 178.899 C 7.003 181.479,7.569 181.120,6.243 177.218 C 4.664 172.574,4.602 172.908,7.432 170.834 C 12.124 167.394,11.959 166.684,6.490 166.792 C 3.397 166.853,3.362 166.858,3.362 167.270 M24.758 181.373 C 24.607 181.604,24.391 182.213,24.278 182.726 C 24.014 183.924,23.027 187.077,22.739 187.643 C 22.365 188.376,21.960 188.452,18.564 188.431 C 13.383 188.399,13.176 188.887,17.134 191.804 C 20.758 194.476,20.661 194.175,19.234 198.319 C 17.434 203.550,17.690 203.581,23.903 198.875 C 25.470 197.688,25.250 197.634,28.344 199.984 C 32.376 203.045,33.284 202.771,31.826 198.931 C 30.021 194.179,30.015 194.199,34.174 191.421 C 35.899 190.268,36.228 189.931,36.228 189.319 C 36.228 188.510,35.656 188.392,31.971 188.440 C 27.899 188.494,28.281 188.859,26.620 183.325 C 25.966 181.150,25.335 180.488,24.758 181.373 M75.756 181.361 C 75.607 181.599,75.253 182.507,74.969 183.380 C 73.129 189.035,73.699 188.494,69.635 188.441 C 63.995 188.366,63.846 188.930,68.618 192.300 C 71.096 194.051,71.269 194.348,70.760 195.985 C 68.629 202.853,68.792 203.314,72.397 200.607 C 76.571 197.474,75.949 197.524,79.290 200.044 C 83.770 203.421,84.050 203.263,82.350 198.321 C 80.961 194.284,80.977 194.232,84.244 192.010 C 88.425 189.167,88.161 188.380,83.044 188.432 C 78.738 188.475,78.945 188.613,78.087 185.118 C 77.220 181.584,76.423 180.299,75.756 181.361 M177.350 181.282 C 177.186 181.464,176.961 182.031,176.849 182.543 C 175.626 188.152,175.300 188.492,171.195 188.441 C 167.775 188.398,167.420 188.447,167.122 189.004 C 166.813 189.581,167.170 189.971,169.835 191.959 C 173.258 194.512,173.156 194.193,171.802 198.171 C 170.205 202.862,170.516 203.323,173.669 200.931 C 178.274 197.437,177.562 197.511,181.108 200.163 C 183.901 202.252,184.238 202.429,184.650 202.017 C 185.061 201.605,184.882 200.556,183.904 197.665 C 182.727 194.183,182.674 194.385,185.280 192.456 C 190.227 188.793,190.149 188.372,184.544 188.439 C 182.702 188.461,181.106 188.424,180.996 188.356 C 180.748 188.203,179.950 186.133,179.469 184.395 C 178.652 181.448,178.029 180.532,177.350 181.282 M126.456 181.571 C 126.233 181.809,126.050 182.114,126.050 182.249 C 126.050 182.385,125.805 183.220,125.504 184.105 C 125.203 184.990,124.863 186.075,124.748 186.515 C 124.633 186.956,124.297 187.586,124.002 187.916 L 123.466 188.515 120.226 188.451 C 115.116 188.349,114.799 188.994,118.629 191.701 C 122.515 194.448,122.374 194.066,121.008 198.133 C 119.681 202.084,119.968 203.314,121.847 201.727 C 124.292 199.664,126.500 198.133,127.032 198.133 C 127.551 198.133,130.484 200.126,131.891 201.435 C 134.036 203.431,134.431 202.060,132.954 197.741 C 131.736 194.181,131.657 194.412,134.870 192.134 C 139.439 188.894,139.286 188.353,133.824 188.449 C 130.126 188.514,130.035 188.484,129.526 187.045 C 128.953 185.429,128.105 182.622,128.105 182.345 C 128.105 181.480,127.020 180.971,126.456 181.571 M26.006 183.613 C 26.260 184.255,26.524 185.092,26.593 185.473 C 26.750 186.340,27.900 188.889,28.231 189.103 C 28.367 189.191,29.864 189.304,31.557 189.356 C 35.493 189.475,35.496 189.484,32.413 191.759 C 29.276 194.074,29.313 193.927,30.802 198.210 C 31.978 201.591,31.826 201.645,28.412 199.066 C 25.207 196.644,25.592 196.658,22.649 198.855 C 20.583 200.397,19.776 200.934,19.527 200.934 C 19.279 200.934,19.452 199.563,19.815 198.653 C 21.381 194.729,21.291 193.888,19.141 192.335 C 15.011 189.351,15.011 189.356,19.020 189.356 C 22.922 189.356,22.961 189.332,23.947 186.455 C 24.333 185.329,24.650 184.281,24.650 184.127 C 24.660 182.357,25.398 182.077,26.006 183.613 M76.722 182.773 C 76.816 182.953,77.172 184.231,77.513 185.613 C 77.988 187.536,78.252 188.261,78.640 188.695 L 79.147 189.262 82.290 189.321 C 86.429 189.398,86.499 189.534,83.470 191.609 C 80.349 193.747,80.252 194.030,81.419 197.572 C 82.550 201.003,82.393 201.549,80.675 200.166 C 76.091 196.476,76.493 196.557,73.631 198.744 C 69.987 201.527,69.740 201.374,71.138 197.199 C 72.191 194.056,72.040 193.700,68.642 191.332 C 66.089 189.551,66.144 189.473,70.049 189.356 C 72.221 189.290,73.235 189.189,73.443 189.016 C 73.780 188.735,74.776 186.414,74.979 185.434 C 75.410 183.359,76.310 181.986,76.722 182.773 M127.487 183.022 C 127.610 183.270,128.061 184.588,128.491 185.950 C 129.583 189.419,129.493 189.356,133.337 189.356 C 137.364 189.356,137.369 189.380,133.865 191.897 C 130.823 194.082,130.848 193.984,132.317 198.039 C 133.468 201.217,133.378 201.770,131.920 200.461 C 130.371 199.071,127.565 197.199,127.030 197.199 C 126.520 197.199,125.437 197.927,122.455 200.275 C 120.557 201.769,120.507 201.564,121.862 197.852 C 123.193 194.204,123.118 193.974,119.792 191.587 C 116.905 189.514,116.922 189.475,120.730 189.356 C 123.819 189.259,124.364 189.131,124.751 188.408 C 125.021 187.902,126.235 184.285,126.236 183.981 C 126.240 182.817,127.072 182.179,127.487 183.022 M178.371 183.207 C 178.543 183.559,178.829 184.432,179.008 185.148 C 179.981 189.055,180.317 189.334,184.136 189.398 C 188.194 189.466,188.226 189.263,183.604 192.744 C 181.981 193.967,181.938 194.375,183.100 197.572 C 184.497 201.417,184.327 201.619,181.483 199.483 C 177.623 196.583,178.196 196.621,174.889 199.049 C 171.689 201.398,171.242 201.270,172.429 198.350 C 173.837 194.884,173.732 193.905,171.800 192.478 C 167.603 189.377,167.609 189.478,171.630 189.356 C 174.766 189.260,175.344 189.131,175.711 188.446 C 176.027 187.856,177.218 184.165,177.218 183.776 C 177.218 182.471,177.857 182.156,178.371 183.207 M202.801 213.912 C 202.595 214.161,191.148 214.192,101.831 214.192 C 5.991 214.192,1.096 214.208,1.156 214.519 C 1.216 214.830,6.187 214.848,101.963 214.895 L 202.708 214.945 203.035 214.548 C 203.382 214.126,203.470 213.632,203.197 213.632 C 203.107 213.632,202.929 213.758,202.801 213.912 " stroke="none" fill="#8397c0" fill-rule="evenodd"></path><path id="path4" d="M203.554 29.458 C 203.558 30.025,203.596 30.096,203.750 29.832 C 203.930 29.522,206.509 29.505,253.651 29.497 C 302.742 29.490,303.353 29.485,302.708 29.132 C 302.068 28.782,300.976 28.774,252.801 28.766 L 203.548 28.758 203.554 29.458 M203.554 60.084 L 203.548 60.691 273.039 60.691 C 334.787 60.691,342.503 60.660,342.297 60.411 C 342.091 60.163,334.163 60.131,273.002 60.131 C 207.426 60.131,203.931 60.114,203.750 59.804 C 203.592 59.533,203.558 59.581,203.554 60.084 M203.548 91.167 C 203.548 91.632,203.598 91.715,203.772 91.541 C 203.946 91.367,222.372 91.317,285.566 91.317 C 367.090 91.317,367.137 91.316,366.903 90.943 C 366.671 90.570,366.468 90.570,285.109 90.570 L 203.548 90.570 203.548 91.167 M203.548 121.720 L 203.548 122.502 293.647 122.502 L 383.745 122.502 383.533 122.035 L 383.320 121.567 293.667 121.570 C 209.494 121.572,204.001 121.553,203.782 121.255 C 203.581 120.982,203.548 121.049,203.548 121.720 M203.673 152.505 C 203.604 152.574,203.549 152.889,203.551 153.206 C 203.553 153.564,203.610 153.693,203.703 153.547 C 203.822 153.359,222.822 153.313,298.865 153.314 C 385.501 153.316,393.868 153.290,393.764 153.020 C 393.702 152.857,393.651 152.647,393.651 152.552 C 393.651 152.355,203.869 152.309,203.673 152.505 M203.548 183.264 L 203.548 183.940 301.120 183.940 L 398.693 183.940 398.693 183.473 L 398.693 183.005 301.375 183.007 C 229.206 183.009,203.992 182.955,203.803 182.799 C 203.596 182.627,203.548 182.714,203.548 183.264 M203.163 214.334 L 202.872 214.846 300.642 214.800 C 354.416 214.775,398.518 214.714,398.646 214.666 C 398.775 214.617,398.880 214.407,398.880 214.198 L 398.880 213.819 301.167 213.820 L 203.455 213.821 203.163 214.334 M5.743 244.911 L 5.833 245.378 200.000 245.378 L 394.167 245.378 394.257 244.911 L 394.346 244.444 200.000 244.444 L 5.654 244.444 5.743 244.911 M15.534 275.724 L 15.746 276.190 200.000 276.190 L 384.254 276.190 384.466 275.724 L 384.679 275.257 200.000 275.257 L 15.321 275.257 15.534 275.724 M31.559 306.592 C 31.559 306.674,31.660 306.842,31.783 306.965 C 32.174 307.356,368.178 307.285,368.327 306.894 C 368.390 306.732,368.441 306.564,368.441 306.521 C 368.441 306.478,292.642 306.443,200.000 306.443 C 107.358 306.443,31.559 306.510,31.559 306.592 M55.462 337.348 C 55.816 337.775,344.184 337.775,344.538 337.348 C 344.744 337.099,328.664 337.068,200.000 337.068 C 71.336 337.068,55.256 337.099,55.462 337.348 M93.651 368.627 C 94.208 368.997,94.757 368.998,200.000 368.998 C 305.243 368.998,305.792 368.997,306.349 368.627 C 306.909 368.257,306.737 368.256,200.000 368.256 C 93.263 368.256,93.091 368.257,93.651 368.627 " stroke="none" fill="#ea8f97" fill-rule="evenodd"></path></g></svg>